<?xml version="1.0" encoding="utf-8" ?>
<svg xmlns="http://www.w3.org/2000/svg" xmlns:xlink="http://www.w3.org/1999/xlink" width="1024" height="1024">
	<path fill="white" d="M0 0L788.527 0L791.152 0L791.434 0L1024 0L1024 1024L0 1024L0 0Z"/>
	<path fill="#78A1E3" d="M822.996 317.711C822.191 312.354 821.45 268.455 823.191 265.235C823.807 264.095 824.843 263.438 826.082 263.121C827.277 262.815 828.219 262.873 829.291 263.503C832.915 268.071 831.33 292.737 831.266 299.775C831.245 302.059 830.841 305.233 831.446 307.413C831.497 307.599 831.581 307.774 831.649 307.954C828.99 311.327 826.059 314.691 822.996 317.711Z"/>
	<path fill="#78A1E3" d="M607.637 299.095L607.656 257.664C607.659 251.527 607.098 244.877 607.686 238.806C607.794 237.696 608.068 236.545 608.933 235.768Q609.099 235.618 609.281 235.487Q609.462 235.355 609.655 235.242Q609.849 235.13 610.053 235.037Q610.257 234.945 610.47 234.875Q610.682 234.804 610.901 234.755Q611.119 234.707 611.342 234.681Q611.564 234.655 611.788 234.652Q612.012 234.649 612.235 234.669C613.471 234.774 614.595 235.362 615.301 236.398C617.842 240.122 616.278 292.259 616.499 300.804C613.604 299.955 610.611 299.568 607.637 299.095Z"/>
	<path fill="#78A1E3" d="M346.042 248.335C347.716 248.544 348.978 248.803 350.088 250.15C350.882 251.115 351.282 252.431 351.401 253.658C352.389 263.806 351.579 274.819 351.579 285.043C351.579 293.794 352.4 303.455 351.409 312.115C351.165 314.241 349.576 315.238 348.032 316.493C346.281 316.377 345.045 316.201 343.445 315.461C343.192 315.104 342.844 314.797 342.686 314.389C341.84 312.211 341.933 258.292 342.581 253.08C342.872 250.732 344.319 249.722 346.042 248.335Z"/>
	<path fill="#78A1E3" d="M471.372 298.467Q471.457 278.232 471.253 257.998C471.17 251.089 470.496 243.749 471.042 236.88C471.17 235.274 471.357 233.848 472.538 232.634C473.408 231.74 474.591 231.222 475.849 231.307C477.174 231.398 478.212 232.146 478.915 233.233C479.746 234.519 480.058 235.988 480.179 237.495C480.61 242.859 480.29 248.456 480.31 253.842C480.365 268.674 479.947 283.681 480.531 298.492L471.372 298.467Z"/>
	<path fill="#78A1E3" d="M821.439 386.183C824.415 387.03 827.466 388.097 830.488 388.725L830.496 432.897C830.509 440.165 830.95 447.737 830.375 454.976C830.201 457.161 829.845 459.099 828.958 461.12C828.158 461.792 827.394 462.054 826.368 462.187C825.386 462.314 824.357 462.028 823.639 461.341C822.625 460.37 822.193 459.251 821.995 457.877C820.97 450.766 821.737 442.476 821.696 435.249L821.439 386.183Z"/>
	<path fill="#78A1E3" d="M580.499 298.476L580.536 242.931C580.541 235.345 579.588 227.102 580.43 219.616C580.628 217.851 581.062 215.519 582.411 214.227C583.303 213.372 584.33 213.241 585.511 213.421C586.771 213.613 587.88 214.576 588.452 215.675C589.225 217.16 589.38 219.117 589.466 220.757C589.825 227.656 589.326 234.812 589.347 241.751L589.332 298.574C594.347 298.543 599.651 298.182 604.616 298.92C597.047 299.344 589.261 298.955 581.671 298.941C575.385 298.929 568.661 299.479 562.457 298.639C568.451 298.271 574.495 298.449 580.499 298.476Z"/>
	<path fill="#78A1E3" d="M60.3874 309.425C60.5358 309.427 60.6843 309.424 60.8326 309.431C62.6327 309.517 64.8514 309.758 65.9548 311.418C66.4104 312.103 66.5321 312.887 66.5776 313.688C67.4907 329.771 66.7137 346.335 66.7336 362.461C66.7405 368.03 67.6176 386.285 66.4612 390.655C66.0728 392.122 64.8907 392.826 63.7182 393.647C61.9604 393.594 59.9116 393.537 58.6601 392.08C57.6598 390.916 57.6781 389.066 57.5835 387.606C56.6871 373.77 57.4153 359.483 57.4257 345.603C57.4334 335.45 56.6651 324.822 57.3591 314.724C57.5487 311.965 58.4058 311.193 60.3874 309.425Z"/>
	<path fill="#78A1E3" d="M363.833 306.58C363.203 301.549 363.597 296.214 363.589 291.137L363.516 263.072Q363.529 251.79 363.347 240.509C363.21 234.955 362.72 229.238 363.081 223.691C363.193 221.951 363.361 220.141 364.507 218.734C365.236 217.838 366.315 217.37 367.467 217.396C368.761 217.426 369.995 218.079 370.873 219.007C371.706 219.889 372.343 221.187 372.519 222.389C373.231 227.276 372.455 239.436 372.45 244.999L372.482 302.331C369.578 303.697 366.63 305.003 363.833 306.58Z"/>
	<path fill="#78A1E3" d="M633.911 310.504C634.004 310.29 634.103 310.079 634.189 309.863C635.593 306.333 634.482 295.837 634.468 291.73L634.559 238.587C634.535 229.19 633.566 218.733 634.845 209.444C635.053 207.94 635.379 207.122 636.517 206.06C638.032 205.481 639.546 205.105 641.114 205.864C642.322 206.449 642.864 207.484 643.217 208.723C644.302 212.525 644.233 313.884 643.243 320.972C640.422 317.164 637.31 313.802 633.911 310.504Z"/>
	<path fill="#78A1E3" d="M553.268 298.614L553.153 225.366C553.114 213.475 552.571 201.353 552.984 189.492C553.04 187.892 553.358 186.117 554.381 184.828C555.187 183.814 556.483 183.464 557.733 183.491C559.022 183.52 560.226 183.947 561.07 184.956C562 186.068 562.071 187.538 562.174 188.922C562.949 199.386 562.28 210.389 562.333 220.908L562.457 298.639L553.268 298.614Z"/>
	<path fill="#78A1E3" d="M498.479 298.477L498.621 224.358C498.648 213.52 497.819 199.386 498.873 189.045C499.043 187.374 499.18 186.073 500.447 184.862C501.424 183.929 502.667 183.232 504.045 183.255C504.893 183.27 505.444 183.676 506.06 184.241C507.356 185.43 507.783 188.135 507.937 189.773C508.938 200.416 507.871 213.068 507.874 223.958L507.875 298.497L498.479 298.477Z"/>
	<path fill="#78A1E3" d="M795.13 346.627C794.467 338.715 795.156 330.159 795.141 322.177L795.039 267.319L794.984 229.711C794.976 223.5 794.286 216.405 795.396 210.3C795.748 208.36 796.438 206.759 798.264 205.752C799.142 205.268 799.907 204.946 800.882 205.303C802.876 206.033 803.599 209.856 803.835 211.661C805.023 220.743 804.009 234.482 804.029 244.066L804.23 311.124C804.201 315.893 802.871 330.446 804.353 334.347C804.434 334.561 804.527 334.77 804.615 334.981C800.79 338.638 797.839 342.076 795.13 346.627Z"/>
	<path fill="#78A1E3" d="M525.629 298.559C526.695 285.313 525.941 271.503 525.92 258.203L525.968 187.765L525.999 167.772C525.992 165.025 525.684 162.191 525.901 159.458C526.044 157.648 526.358 155.4 527.674 154.018C528.531 153.117 529.785 152.832 530.986 152.965C532.339 153.115 533.202 153.695 533.931 154.825C534.572 155.818 534.77 157.334 534.811 158.48C535.233 170.244 534.58 182.337 534.549 194.141C534.457 228.905 533.847 263.849 534.688 298.6L525.629 298.559Z"/>
	<path fill="#78A1E3" d="M794.903 362.962C797.563 367.728 800.328 371.659 804.113 375.586C802.637 381.538 803.761 394.236 803.798 401.09L803.873 481.863C803.856 488.523 805.28 506.4 803.356 511.718C802.876 513.043 801.931 514.6 800.48 515.001C799.123 515.375 798.451 514.986 797.262 514.446C795.591 512.504 795.157 510.548 794.953 508.024C794.562 503.18 794.957 498.093 794.97 493.225L794.929 463.41L794.903 362.962Z"/>
	<path d="M774.989 692.915C775.079 683.565 778.795 673.603 785.556 667.018Q786.125 666.462 786.721 665.935Q787.317 665.408 787.938 664.911Q788.558 664.414 789.203 663.948Q789.848 663.482 790.515 663.048Q791.182 662.615 791.869 662.214Q792.557 661.814 793.263 661.448Q793.97 661.083 794.693 660.752Q795.417 660.422 796.156 660.127Q796.895 659.833 797.647 659.575Q798.4 659.318 799.164 659.097Q799.929 658.877 800.703 658.695Q801.477 658.513 802.26 658.369Q803.042 658.225 803.831 658.12Q804.619 658.015 805.412 657.949Q806.205 657.883 807 657.856Q807.795 657.829 808.59 657.841C818.842 658.04 828.964 662.74 835.949 670.205C844.477 679.319 851.255 695.405 857.687 706.443C861.642 713.23 866.306 719.626 869.874 726.635C874.281 735.287 877.911 744.436 881.951 753.277Q892.613 776.305 903.541 799.207L988.252 975.359C991.429 981.877 1007.27 1011.86 1007.44 1016.23C1006.34 1016.52 1005.45 1016.6 1004.31 1016.58C1000.1 1003.8 992.524 990.578 986.496 978.46C979.079 963.551 972.027 948.44 964.797 933.437L892.612 782.475C885.392 767.019 877.93 751.705 870.964 736.13C869.101 731.965 867.257 727.549 864.902 723.639C861.841 718.558 858.045 713.914 855.12 708.749C845.812 692.316 838.98 670.292 819.754 663.123C812.149 660.287 802.756 660.47 795.381 663.953C787.807 667.529 780.508 676.164 778.875 684.517C778.38 687.046 778.658 690.35 777.669 692.676C777.36 693.402 776.993 693.322 776.309 693.572L774.989 692.915Z"/>
	<path fill="#78A1E3" d="M168.972 263.418C169.119 263.433 169.267 263.441 169.413 263.464C170.944 263.704 172.269 264.187 173.16 265.531C175.083 268.432 173.944 291.827 173.932 296.819L174.058 402.277L174.394 429.359C174.459 433.781 175.003 438.908 174.31 443.248C173.996 445.217 172.51 446.075 170.995 447.104C169.656 446.923 168.142 446.549 167.216 445.488C165.795 443.86 165.514 441.011 165.422 438.935C164.879 426.7 165.568 414.118 165.556 401.846L165.545 318.642L165.42 284.948C165.383 279.394 164.677 272.688 165.714 267.263C166.083 265.334 167.486 264.473 168.972 263.418Z"/>
	<path fill="#78A1E3" d="M744.615 263.315C745.295 263.286 746.076 263.214 746.759 263.293C748.003 263.436 749.133 263.721 749.915 264.772C750.93 266.135 750.986 268.06 751.033 269.689C751.337 280.115 751.037 290.645 750.991 301.08L750.614 369.73L750.671 416.267C750.744 424.99 751.397 433.984 750.851 442.676C750.667 445.598 750.347 446.386 748.207 448.272C746.633 448.267 744.916 448.29 743.702 447.111C742.61 446.052 742.204 444.321 742.083 442.851C741.824 439.698 742.215 436.4 742.245 433.233L742.308 413.064L742.312 344.69L742.138 292.593C742.09 284.751 741.154 274.813 742.228 267.303C742.47 265.612 743.539 264.557 744.615 263.315Z"/>
	<path fill="#78A1E3" d="M323.503 271.474C325.182 271.431 326.913 271.249 328.351 272.284C330.038 273.5 330.635 275.902 330.751 277.875C331.123 284.171 330.459 290.867 330.587 297.238Q331.369 336.194 331.055 375.156L330.963 416.187C330.944 423.294 331.333 430.682 330.738 437.759C330.552 439.984 330.154 441.068 328.681 442.75C326.936 443.087 325.166 443.424 323.561 442.374C322.09 441.412 321.636 439.67 321.519 438.024C320.856 428.634 321.419 418.86 321.45 409.44L321.533 354.943L321.409 304.411C321.359 295.042 320.747 285.249 321.505 275.922C321.667 273.932 322.207 272.982 323.503 271.474Z"/>
	<path fill="#78A1E3" d="M88.9493 261.03C90.5617 261.251 92.1151 261.459 93.1505 262.904C93.6325 263.577 93.9122 264.413 94.0384 265.224C94.6394 269.089 94.0504 273.797 94.034 277.764L94.0705 305.553L94.0475 410.002C94.0356 417.811 95.279 437.42 93.9628 443.465C93.472 445.72 92.6448 446.627 90.7114 447.825C89.0211 447.53 87.8437 447.201 86.3531 446.34C85.5836 444.187 85.5288 441.869 85.4673 439.601C85.1229 426.893 85.4404 414.09 85.4307 401.368L85.3028 320.497L84.9895 282.479C84.9485 277.433 84.049 269.3 85.2622 264.676C85.8226 262.539 87.1501 262.006 88.9493 261.03Z"/>
	<path fill="#78A1E3" d="M389.067 298.385C389.305 298.093 389.633 297.855 389.782 297.508C390.757 295.248 389.977 233.631 389.951 224.911C389.934 219.076 388.776 207.553 390.743 202.253C391.325 200.684 392.674 199.818 394.311 199.619C395.385 199.488 396.081 199.623 397.019 200.127C397.867 201.231 398.42 201.994 398.561 203.439C399.507 213.105 398.667 223.548 398.636 233.284L398.535 297.979L416.555 297.996C416.63 285.722 416.952 273.426 416.914 261.156C416.896 255.27 416.08 248.847 416.913 243.064C417.14 241.488 417.622 239.668 418.887 238.595C419.789 237.83 420.856 237.735 421.982 237.974C423.349 238.265 424.272 239.181 424.869 240.4C426.786 244.314 425.484 289.882 425.585 298.036L443.466 298L443.546 273.737C443.515 268.48 442.871 262.507 443.808 257.328C444.118 255.614 444.693 254.686 445.872 253.434C446.942 252.928 447.813 252.575 449.013 252.939C450.487 253.385 451.335 254.753 451.826 256.121C453.596 261.047 452.512 290.621 452.562 298.086C457.676 298.145 463.063 297.853 468.136 298.406C460.169 298.772 452.111 298.469 444.133 298.436L410.019 298.428C403.034 298.381 396.048 298.043 389.067 298.385Z"/>
	<path fill="#78A1E3" d="M298.999 246.955C299.718 246.909 300.554 246.812 301.265 246.921C302.557 247.12 303.614 247.737 304.392 248.8C305.386 250.16 305.658 252.026 305.729 253.662C306.153 263.411 305.486 273.892 305.478 283.75L305.455 355.743L305.596 435.717C305.609 440.015 306.432 458.485 305.56 461.502C305.067 463.206 303.946 463.819 302.539 464.706C301.367 464.688 300.435 464.53 299.305 464.221C297.293 462.64 296.979 460.834 296.664 458.414C295.653 450.666 296.71 441.616 296.776 433.729L296.886 381.414L296.712 289.804C296.73 277.258 295.853 264.245 296.67 251.763C296.799 249.786 297.831 248.472 298.999 246.955Z"/>
	<path fill="#78A1E3" d="M771.876 241.364C772.335 241.383 772.794 241.392 773.25 241.445C774.563 241.597 775.614 242.172 776.399 243.249C777.608 244.906 777.894 247.427 777.93 249.418C778.245 266.973 777.847 284.686 777.789 302.254L777.669 401.845L777.802 448.125C777.824 454.379 778.758 462.121 777.713 468.209C777.374 470.184 776.46 470.809 774.913 471.86C773.092 471.905 771.908 471.824 770.32 470.879C769.259 469.448 769.112 468.496 769.089 466.783C768.907 452.996 769.422 439.149 769.451 425.354L769.408 322.423L769.183 273.293C769.087 264.177 768.233 254.294 769.22 245.285C769.447 243.219 770.351 242.578 771.876 241.364Z"/>
	<path fill="#78A1E3" d="M719.599 241.413C721.22 241.826 722.641 242.137 723.588 243.678C724.53 245.211 724.748 247.401 724.752 249.163L724.328 412.171Q724.313 429.858 724.477 447.543C724.522 454.081 725.523 462.202 724.049 468.503C723.067 469.945 721.794 470.37 720.26 471.044C718.862 470.531 718.011 470.097 716.863 469.152C715.805 467.311 715.832 464.961 715.78 462.881C715.429 448.82 715.638 434.657 715.608 420.588L715.743 315.21C715.727 306.674 714.725 248.301 715.842 244.835C716.479 242.861 717.891 242.31 719.599 241.413Z"/>
	<path fill="#78A1E3" d="M195.485 239.439Q196.076 239.516 196.663 239.618C198.244 239.903 199.203 240.315 200.079 241.746C200.775 242.883 200.906 244.454 200.935 245.745C201.267 260.818 201.033 275.96 201.06 291.042L201.046 396.242L201.24 446.41C201.236 450.785 201.974 461.066 200.803 464.823C200.16 466.886 199.087 467.763 197.291 468.849C195.655 468.169 193.787 467.54 192.609 466.145C190.869 464.086 191.936 442.333 191.956 437.949Q192.495 370.521 192.287 303.091L192.01 261.407C191.973 255.855 191.058 248.581 192.171 243.231C192.565 241.333 194.005 240.46 195.485 239.439Z"/>
	<path fill="#78A1E3" d="M142.59 240.385C143.791 240.53 145.285 240.941 146.181 241.809C147.616 243.201 147.707 245.817 147.827 247.697C148.429 257.132 148.097 266.844 148.192 276.314Q148.527 307.137 148.475 337.961C148.486 378.596 149.262 419.384 148.506 460C148.422 464.496 148.355 466.089 144.987 469.339C144.088 469.246 144.093 469.267 143.163 469.081C141.718 468.793 140.837 468.092 140.099 466.81C139.746 466.196 139.523 465.35 139.411 464.655C138.94 461.725 139.494 458.383 139.438 455.387Q138.465 378.265 139.029 301.142C139.013 294.096 137.999 246.862 139.236 243.248C139.759 241.718 141.256 241.104 142.59 240.385Z"/>
	<path fill="#78A1E3" d="M660.973 467.016C661.043 466.768 661.118 466.521 661.183 466.271C662.212 462.297 661.494 456.447 661.497 452.275L661.509 419.857Q661.96 304.02 661.221 188.184C661.201 184.758 660.996 179.169 664.341 177.1C665.204 176.566 666.507 176.527 667.442 176.916C668.882 177.516 669.745 179.02 670.173 180.446C671.753 185.714 670.293 214.387 670.239 221.898L670.142 413.95L670.279 459.388C670.304 464.994 671.305 473.385 670.118 478.589C667.352 474.451 663.749 471.073 660.973 467.016Z"/>
	<path fill="#78A1E3" d="M220.66 204.438C221.015 204.425 221.371 204.41 221.727 204.414C223.284 204.427 224.705 204.609 225.733 205.952C227.097 207.735 226.964 211.146 227.003 213.325C227.391 235.274 226.984 257.294 227.011 279.251L227.01 431.202L227.039 480.055C227.056 485.983 228.028 498.907 226.688 503.871C226.108 506.022 224.497 506.791 222.707 507.85L222.298 507.676C221.566 507.368 220.611 507.053 219.985 506.565C218.18 505.159 217.95 502.325 217.79 500.22C217.397 495.041 218.038 489.468 218.153 484.239Q218.314 470.981 218.307 457.723L218.212 368.39L218.258 260.956Q218.257 244.745 218.088 228.535C218.019 222.093 217.636 215.465 218.067 209.039C218.2 207.053 219.428 205.874 220.66 204.438Z"/>
	<path fill="#78A1E3" d="M272.812 201.42C274.595 201.394 276.52 201.262 278.002 202.441C278.803 203.078 279.263 204.074 279.411 205.071C280.478 212.313 279.552 224.433 279.505 232.08L279.177 295.611L279.526 443.838C279.577 463.152 280.308 482.496 279.993 501.806C279.935 505.31 280.053 507.37 277.94 510.314C276.033 510.563 273.997 511.018 272.427 509.571C271.154 508.398 270.734 506.492 270.621 504.83C270.195 498.519 270.826 491.654 270.829 485.269L270.838 437.219Q271.183 359.901 270.59 282.584L270.37 225.674C270.357 220.882 269.514 208.166 270.615 204.193C270.899 203.17 272.082 202.162 272.812 201.42Z"/>
	<path fill="#78A1E3" d="M691.457 204.395C691.946 204.373 692.435 204.341 692.925 204.351C694.43 204.381 695.922 204.803 696.912 206.018C697.771 207.071 697.865 208.519 697.956 209.819C698.759 221.215 697.986 233.229 697.987 244.701L698.003 317.011L697.955 464.656L697.988 497.415C697.996 502.685 698.676 509.392 697.587 514.527C697.23 516.215 696.061 516.907 694.742 517.84C693.044 517.844 691.924 517.679 690.416 516.799C689.343 515.571 689.361 514.118 689.324 512.565C688.258 468.048 689.531 423.393 689.488 378.858L689.213 262.492C689.186 246.176 688.814 229.827 689.04 213.515C689.092 209.752 688.593 207.19 691.457 204.395Z"/>
	<path fill="#78A1E3" d="M115.879 205.486C117.689 205.456 119.802 205.448 121.122 206.904C123.393 209.408 122.21 220.32 122.185 223.969L122.266 413.103L122.359 469.725C122.407 480.015 123.151 490.867 122.276 501.112C122.06 503.638 121.074 504.479 119.22 506.01C118.929 506.006 118.637 506.013 118.346 505.999C116.664 505.918 115.017 505.566 113.979 504.08C111.216 500.124 112.864 428.531 112.898 416.558L112.845 277.955Q112.522 253.871 112.574 229.786C112.573 223.242 111.843 215.729 112.89 209.315C113.212 207.345 114.386 206.593 115.879 205.486Z"/>
	<path fill="#78A1E3" d="M246.713 179.528C248.634 179.337 250.488 179.004 252.058 180.405C253.603 181.783 253.368 184.803 253.395 186.719C253.588 200.588 253.008 214.492 253.101 228.372L253.534 514.533C253.556 519.005 254.437 527.409 253.27 531.465C252.986 532.453 252.045 533.305 251.341 534.017C249.562 534.116 247.577 534.379 246.115 533.155C244.723 531.989 244.748 529.342 244.692 527.658C243.98 505.956 244.628 483.969 244.655 462.242Q244.967 401.183 244.645 340.124L244.591 238.749C244.549 220.573 243.642 201.962 244.601 183.829C244.706 181.844 245.38 180.933 246.713 179.528Z"/>
	<path d="M788.527 0L791.152 0C791.077 11.5599 791.087 23.1503 792.311 34.6596Q792.588 37.2967 792.92 39.9275Q793.251 42.5583 793.638 45.1816Q794.024 47.8049 794.465 50.4197Q794.905 53.0344 795.4 55.6394Q795.895 58.2444 796.444 60.8386Q796.993 63.4328 797.595 66.015Q798.198 68.5972 798.854 71.1664Q799.51 73.7355 800.219 76.2905Q800.929 78.8455 801.691 81.3851Q802.453 83.9248 803.268 86.4481Q804.083 88.9714 804.95 91.4772Q805.817 93.9831 806.736 96.4703Q807.655 98.9576 808.626 101.425Q809.596 103.893 810.617 106.34Q811.639 108.787 812.711 111.212Q813.783 113.637 814.905 116.04Q816.027 118.442 817.199 120.821Q818.371 123.199 819.592 125.553Q820.813 127.907 822.083 130.235Q823.352 132.563 824.67 134.864Q825.988 137.165 827.353 139.438Q828.718 141.711 830.13 143.955Q831.542 146.2 833.001 148.414Q834.459 150.629 835.963 152.812Q837.468 154.996 839.017 157.148Q840.566 159.3 842.159 161.419Q843.753 163.539 845.39 165.625Q847.027 167.71 848.707 169.762Q850.388 171.813 852.11 173.829Q853.832 175.845 855.596 177.825Q857.36 179.805 859.165 181.747Q860.969 183.69 862.814 185.595C913.731 237.204 965.339 260.671 998.945 329.609C1003.55 339.061 1009.3 350.261 1011.43 360.537C1010.65 360.649 1009.91 360.977 1009.21 360.538C1007.36 359.388 1001.89 343.258 1000.36 339.872C993.117 323.855 984.656 308.405 974.221 294.227C953.868 266.572 927.112 246.258 900.889 224.617C892.283 217.514 884.114 209.851 875.663 202.56C876.016 242.994 859.143 279.705 833.738 310.378C830.019 314.868 826.332 319.585 822.253 323.74C813.319 332.84 796.86 341.184 796.924 355.55C796.956 362.557 800.963 368.278 805.879 372.889C810.707 377.417 816.275 380.755 822.463 383.078C835.051 387.803 856.042 388.569 856.914 406.32C857.371 415.61 851.655 426.504 847.571 434.582C846.057 437.578 843.86 441.003 843.382 444.334C842.829 448.186 843.917 451.337 846.757 453.985C850.672 457.635 856.999 460.223 861.922 462.217C863.686 462.932 865.847 463.495 867.436 464.521C868.327 465.095 868.37 465.128 868.594 466.194C865.791 471.585 850.708 480.34 852.633 486.845C855.608 496.903 872.218 504.37 873.687 512.926C877.852 537.19 849.697 556.797 866.605 586.041C872.15 595.633 881.465 602.614 891.313 607.331C915.589 618.958 946.831 620.037 973.397 620.514C976.993 620.578 1009.99 619.912 1011.29 620.535C1011.62 620.696 1011.83 621.037 1012.1 621.289L1012.11 622.562C1010.28 624.381 998.982 623.72 996.029 623.709C958.91 623.567 899.665 625.672 871.505 597.306C862.871 588.608 858.28 577.637 858.359 565.356C858.485 545.719 872.442 532.421 870.333 511.608C864.718 506.217 849.165 493.052 849.226 485.057C849.277 478.493 859.983 471.05 864.068 466.384C856.006 462.883 844.459 459.906 841.001 450.823C838.948 445.427 841.143 440.236 843.495 435.39C847.575 426.982 856.186 412.741 853.155 403.351C851.543 398.359 847.09 394.896 842.532 392.688C838.697 390.83 834.603 389.759 830.488 388.725C827.466 388.097 824.415 387.03 821.439 386.183C814.803 383.639 809.516 380.176 804.113 375.586C800.328 371.659 797.563 367.728 794.903 362.962C793.552 357.017 793.77 352.526 795.13 346.627C797.839 342.076 800.79 338.638 804.615 334.981C811.091 329.478 817.324 324.069 822.996 317.711C826.059 314.691 828.99 311.327 831.649 307.954C856.861 279.39 874.564 237.591 872.561 199.221C864.068 191.241 855.938 183.197 848.472 174.234Q846.917 172.381 845.398 170.5Q843.878 168.619 842.393 166.71Q840.909 164.8 839.46 162.864Q838.012 160.927 836.6 158.964Q835.188 157 833.812 155.011Q832.437 153.022 831.099 151.007Q829.761 148.992 828.461 146.953Q827.161 144.914 825.899 142.85Q824.638 140.787 823.415 138.701Q822.192 136.614 821.008 134.505Q819.824 132.397 818.68 130.266Q817.535 128.135 816.431 125.984Q815.327 123.832 814.263 121.66Q813.199 119.489 812.175 117.297Q811.152 115.106 810.17 112.896Q809.188 110.686 808.247 108.458Q807.306 106.23 806.407 103.985Q805.508 101.74 804.651 99.4781Q803.794 97.2166 802.98 94.9395Q802.165 92.6624 801.393 90.3704Q800.621 88.0785 799.892 85.7726Q799.163 83.4666 798.477 81.1475Q797.791 78.8283 797.149 76.4968Q796.506 74.1652 795.907 71.8221Q795.308 69.479 794.753 67.1251Q794.198 64.7712 793.687 62.4073Q793.176 60.0435 792.71 57.6705Q792.243 55.2975 791.82 52.9162Q791.398 50.535 791.02 48.1462Q790.642 45.7575 790.309 43.3621Q789.976 40.9667 789.687 38.5655Q789.399 36.1644 789.155 33.7582C788.095 22.5933 787.514 11.1807 788.527 0Z"/>
	<path fill="#F4793D" d="M621.751 76.6235C630.829 75.9034 640.021 77.9708 647.355 83.5337C655.072 89.3867 660.504 98.714 661.698 108.33Q661.818 109.253 661.891 110.18Q661.964 111.108 661.99 112.038Q662.016 112.968 661.996 113.898Q661.975 114.828 661.908 115.756Q661.841 116.684 661.727 117.608Q661.614 118.531 661.454 119.448Q661.294 120.364 661.088 121.272Q660.883 122.179 660.632 123.075Q660.38 123.971 660.085 124.853Q659.789 125.735 659.449 126.601Q659.11 127.467 658.727 128.316Q658.344 129.164 657.919 129.991Q657.495 130.819 657.029 131.624Q656.563 132.43 656.057 133.211Q655.551 133.992 655.007 134.746Q654.463 135.501 653.881 136.227Q653.374 136.873 652.835 137.493Q652.296 138.113 651.726 138.706Q651.157 139.298 650.559 139.861Q649.96 140.424 649.334 140.956Q648.709 141.488 648.057 141.989Q647.405 142.489 646.729 142.956Q646.053 143.423 645.355 143.855Q644.656 144.288 643.937 144.685Q643.218 145.082 642.479 145.442Q641.741 145.803 640.986 146.126Q640.23 146.448 639.459 146.733Q638.689 147.018 637.905 147.264Q637.121 147.509 636.326 147.715Q635.53 147.921 634.726 148.087Q633.921 148.253 633.109 148.379Q632.297 148.504 631.48 148.589C622.385 149.478 613.834 148.492 606.107 143.312C598.433 138.168 592.199 129.733 590.422 120.586C588.55 110.948 590.937 100.075 596.491 92.0053C602.554 83.198 611.396 78.4827 621.751 76.6235Z"/>
	<path fill="#F6AFA4" d="M97.8238 535.207C113.009 534.077 129.235 538.741 140.862 548.688C153.443 559.451 161.576 573.803 162.808 590.428C164.097 607.825 159.373 624.589 147.785 637.852Q146.787 639.006 145.732 640.109Q144.677 641.212 143.568 642.26Q142.459 643.309 141.299 644.3Q140.139 645.292 138.93 646.224Q137.722 647.156 136.468 648.026Q135.215 648.897 133.919 649.703Q132.623 650.51 131.289 651.25Q129.954 651.99 128.585 652.663Q127.215 653.336 125.813 653.939Q124.411 654.542 122.98 655.074Q121.55 655.606 120.095 656.065Q118.639 656.525 117.163 656.911Q115.687 657.297 114.193 657.608Q112.699 657.92 111.191 658.156Q109.683 658.392 108.165 658.553Q106.648 658.713 105.124 658.797C88.434 659.661 73.8275 655.329 60.8598 644.663C48.766 634.716 41.2133 619.376 39.7623 603.887C38.2008 587.22 43.0526 569.864 53.8878 556.993C65.1947 543.561 80.4758 536.714 97.8238 535.207Z"/>
	<path fill="#F6AFA4" d="M791.152 0L791.434 0L791.767 1.63025C793.311 2.33331 794.839 2.37274 796.508 2.4265C805.053 2.70161 813.718 2.304 822.279 2.30505L879.667 2.31249L1013.31 2.44254Q1012.82 60.1495 1013.16 117.854L1012.92 249.448Q1013.16 288.971 1012.88 328.493C1012.74 338.541 1013.6 350.849 1011.43 360.537C1009.3 350.261 1003.55 339.061 998.945 329.609C965.339 260.671 913.731 237.204 862.814 185.595Q860.969 183.69 859.165 181.747Q857.36 179.805 855.596 177.825Q853.832 175.845 852.11 173.829Q850.388 171.813 848.707 169.762Q847.027 167.71 845.39 165.625Q843.753 163.539 842.159 161.419Q840.566 159.3 839.017 157.148Q837.467 154.996 835.963 152.812Q834.459 150.629 833.001 148.414Q831.542 146.2 830.13 143.955Q828.718 141.711 827.353 139.438Q825.988 137.165 824.67 134.864Q823.352 132.563 822.083 130.235Q820.813 127.907 819.592 125.553Q818.371 123.199 817.199 120.821Q816.027 118.442 814.905 116.04Q813.783 113.637 812.711 111.212Q811.639 108.787 810.617 106.34Q809.596 103.893 808.626 101.425Q807.655 98.9576 806.736 96.4703Q805.817 93.9831 804.95 91.4772Q804.083 88.9714 803.268 86.4481Q802.453 83.9248 801.691 81.3851Q800.929 78.8455 800.219 76.2905Q799.51 73.7355 798.854 71.1664Q798.198 68.5972 797.595 66.015Q796.993 63.4328 796.444 60.8386Q795.895 58.2444 795.4 55.6394Q794.905 53.0344 794.465 50.4197Q794.024 47.8049 793.638 45.1816Q793.251 42.5583 792.92 39.9275Q792.588 37.2967 792.311 34.6596C791.087 23.1503 791.077 11.5599 791.152 0Z"/>
	<path d="M389.067 298.385C396.048 298.043 403.034 298.381 410.019 298.428L444.133 298.436C452.111 298.469 460.169 298.772 468.136 298.406L471.372 298.467L480.531 298.492L498.479 298.477L507.875 298.497L525.629 298.559L534.688 298.6L553.268 298.614L562.457 298.639C568.661 299.479 575.385 298.929 581.671 298.941C589.261 298.955 597.047 299.344 604.616 298.92L607.637 299.095C610.611 299.568 613.604 299.955 616.499 300.804C622.78 303.403 628.506 306.347 633.911 310.504C637.31 313.802 640.422 317.164 643.243 320.972C646.944 327.503 650.239 334.069 651.662 341.505C654.208 354.817 653.226 369.585 653.294 383.137C653.425 409.523 653.022 435.962 653.497 462.341L660.973 467.016C663.749 471.073 667.352 474.451 670.118 478.589C674.611 488.454 676.75 497.561 672.905 508.092C669.424 517.625 659.837 532.169 653.514 540.247L653.52 555.457C663.119 556.013 670.979 558.949 677.539 566.197C683.925 573.253 686.634 582.763 686.061 592.162Q686.013 593.026 685.922 593.886Q685.831 594.746 685.697 595.601Q685.563 596.456 685.387 597.303Q685.211 598.15 684.992 598.987Q684.774 599.824 684.515 600.649Q684.255 601.474 683.955 602.286Q683.654 603.097 683.314 603.892Q682.973 604.688 682.594 605.465Q682.214 606.242 681.796 607Q681.378 607.757 680.923 608.493Q680.468 609.229 679.977 609.941Q679.486 610.653 678.96 611.34Q678.434 612.027 677.874 612.686Q677.315 613.346 676.723 613.977Q676.131 614.608 675.509 615.209Q674.886 615.81 674.235 616.379C668.147 621.713 661.394 623.43 653.553 624.436L653.601 637.413C666.304 635.155 678.042 635.449 689.021 643.211C695.916 648.086 700.985 655.778 702.286 664.162C703.623 672.787 700.922 681.954 695.659 688.848C694.38 690.523 692.865 692.032 691.326 693.468C694.934 696.131 698.444 698.822 701.606 702.013C704.07 690.091 708.159 680.204 718.766 673.346C726.583 668.292 736.562 666.899 745.601 668.85C759.814 671.917 766.85 681.35 774.383 692.858L774.989 692.915L776.309 693.572C776.993 693.322 777.36 693.402 777.669 692.676C778.658 690.35 778.38 687.046 778.875 684.517C780.508 676.164 787.807 667.529 795.381 663.953C802.756 660.47 812.149 660.287 819.754 663.123C838.98 670.292 845.812 692.316 855.12 708.749C858.045 713.914 861.841 718.558 864.902 723.639C867.257 727.549 869.101 731.965 870.964 736.13C877.93 751.705 885.392 767.019 892.612 782.475L964.797 933.437C972.027 948.44 979.079 963.551 986.496 978.46C992.524 990.578 1000.1 1003.8 1004.31 1016.58C999.925 1016.43 995.318 1016.85 990.903 1016.86L949.559 1017.2L855.469 1017.16L773.931 1017.13C759.205 1017.18 744.477 1017.6 729.751 1017.48C714.349 1017.35 698.892 1017.44 683.5 1017.16C661.05 1016.75 638.51 1015.99 616.058 1016.22C614.656 1016.2 613.749 1016.45 612.694 1015.31C610.304 1012.72 608.303 1008.54 606.401 1005.53Q596.235 989.457 586.443 973.153L523.453 871.288C515.132 871.328 506.764 871.18 498.45 871.476C491.221 880.792 483.526 889.743 476.149 898.942L427.441 960.043L400.185 993.982C394.272 1001.47 388.556 1009.43 382.237 1016.58C381.736 1017.14 381.165 1017.43 380.488 1017.74C379.692 1017.64 379.113 1017.53 378.336 1017.28C355.282 1017.57 332.172 1017.11 309.111 1017.05L150.984 1016.98C121.847 1017.01 92.6603 1016.69 63.5297 1017.23L60.997 1016.74L60.5918 1016.08C63.491 1010.6 68.045 1005.37 71.7132 1000.35Q83.1092 984.457 94.8222 968.795C115.499 940.598 135.444 911.789 155.697 883.281C164.687 870.626 173.74 858.061 182.447 845.205C186.865 838.683 191.478 832.198 195.275 825.285C197.138 821.894 199.816 819.839 202.029 816.79C205.499 812.009 208.559 805.744 211.108 800.411C233.917 752.701 226.412 699.37 228.224 648.351C230.004 598.235 262.844 572.552 295.168 539.786C309.257 525.504 322.814 510.348 337.496 496.7C337.882 485.55 337.637 474.306 337.65 463.147L337.493 390.223C337.483 375.552 336.178 357.857 338.659 343.671C341.494 327.466 350.671 315.918 363.833 306.58C366.63 305.003 369.578 303.697 372.482 302.331C377.794 299.994 383.309 298.863 389.067 298.385Z"/>
	<path fill="white" d="M616.67 861.883C618.375 863.782 619.273 866.06 620.14 868.427C621.705 872.701 623.891 880.047 621.617 884.286C621.134 885.187 620.285 885.879 619.29 886.089C617.061 886.558 615.476 885.383 613.617 884.321C609.834 880.803 607.618 876.015 605.497 871.408C611.399 870.335 613.431 866.44 616.67 861.883Z"/>
	<path fill="#FEEEEB" d="M653.585 466.166C654.521 466.616 655.441 467.148 656.318 467.702C663.878 472.48 669.075 481.419 670.925 490.013C673.807 503.399 667.522 512.978 660.614 523.75Q657.127 529.487 653.51 535.143L653.585 466.166Z"/>
	<path fill="white" d="M481.098 539.585L480.916 538.929C484.395 534.255 487.788 530.523 493.869 529.55Q494.302 529.479 494.738 529.43Q495.174 529.382 495.611 529.356Q496.049 529.33 496.488 529.326Q496.927 529.323 497.365 529.342Q497.803 529.362 498.24 529.404Q498.676 529.446 499.11 529.51Q499.544 529.575 499.974 529.662Q500.404 529.749 500.828 529.858Q501.253 529.967 501.672 530.098Q502.091 530.229 502.502 530.381Q502.913 530.534 503.316 530.707Q503.719 530.88 504.112 531.074Q504.506 531.268 504.888 531.483Q505.271 531.697 505.642 531.93Q506.014 532.164 506.372 532.417Q506.731 532.669 507.076 532.94C512.571 537.176 514.82 543.32 515.682 549.945C511.409 550.496 507.207 551.205 503.215 552.893C494.545 556.557 489.221 563.698 485.779 572.178C480.101 566.445 478.039 556.695 479.356 548.925C479.827 546.14 482.017 542.216 481.098 539.585Z"/>
	<path fill="#FEEEEB" d="M662.233 639.192C664.643 638.792 667.379 638.967 669.802 639.206C678.625 640.079 687.397 644.3 693.027 651.235Q693.48 651.783 693.906 652.354Q694.331 652.924 694.726 653.516Q695.122 654.107 695.487 654.717Q695.853 655.328 696.187 655.956Q696.52 656.584 696.822 657.229Q697.124 657.873 697.392 658.532Q697.661 659.191 697.896 659.862Q698.131 660.534 698.332 661.217Q698.532 661.899 698.698 662.591Q698.864 663.283 698.995 663.982Q699.126 664.682 699.221 665.387Q699.316 666.092 699.375 666.801Q699.434 667.51 699.458 668.221Q699.481 668.932 699.469 669.644Q699.456 670.355 699.407 671.065Q699.358 671.775 699.274 672.481C698.298 680.457 694.165 686.696 688.014 691.656C685.479 691.351 682.836 690.22 680.325 689.622C670.477 687.276 662.834 687.371 653.536 691.524L653.526 640.459C656.399 639.864 659.324 639.554 662.233 639.192Z"/>
	<path fill="#FEEEEB" d="M487.452 582.871L487.065 582.328C486.647 579.01 488.348 574.108 489.591 570.994C492.437 563.861 498.087 558.44 505.143 555.535C513.143 552.241 522.419 552.058 530.391 555.523C537.201 558.483 542.175 563.504 544.878 570.425C545.854 572.044 546.98 573.671 547.837 575.349C546.333 586.548 544.979 595.295 535.331 602.654C528.083 608.182 518.842 610.009 509.905 608.688C499.011 607.077 496.917 602.385 489.73 595.887C488.097 592.065 486.808 587.015 487.452 582.871Z"/>
	<path fill="#F4793D" d="M544.878 570.425C545.854 572.044 546.98 573.671 547.837 575.349C546.333 586.548 544.979 595.295 535.331 602.654C528.083 608.182 518.842 610.009 509.905 608.688C499.011 607.077 496.917 602.385 489.73 595.887C488.097 592.065 486.808 587.015 487.452 582.871C488.311 584.179 488.581 585.691 489.073 587.168C490.504 591.461 492.753 595.489 496.088 598.589C501.399 603.526 508.181 606.327 515.489 606.128C523.708 605.903 531.371 602.727 536.991 596.635C544.088 588.942 545.35 580.572 544.878 570.425Z"/>
	<path fill="#FEEEEB" d="M649.235 559.098C656.267 558.449 662.762 559.137 668.893 563.012C676.029 567.523 680.64 575.029 682.353 583.211Q682.523 584 682.653 584.797Q682.783 585.594 682.873 586.396Q682.963 587.199 683.013 588.005Q683.063 588.81 683.072 589.618Q683.081 590.425 683.05 591.232Q683.019 592.039 682.947 592.843Q682.876 593.647 682.764 594.447Q682.652 595.246 682.5 596.039Q682.349 596.832 682.157 597.617Q681.966 598.401 681.736 599.175Q681.505 599.949 681.237 600.71Q680.968 601.471 680.661 602.218Q680.354 602.965 680.011 603.696Q679.667 604.426 679.287 605.139Q678.907 605.851 678.492 606.544Q678.077 607.236 677.628 607.907C672.739 615.217 665.979 619.059 657.468 620.7C650.406 621.555 642.974 620.223 637 616.256Q636.352 615.819 635.726 615.351Q635.1 614.882 634.497 614.384Q633.894 613.886 633.317 613.359Q632.739 612.832 632.188 612.278Q631.637 611.723 631.113 611.143Q630.589 610.562 630.094 609.957Q629.6 609.351 629.135 608.723Q628.67 608.094 628.237 607.443Q627.803 606.793 627.402 606.122Q627 605.451 626.632 604.761Q626.264 604.072 625.929 603.365Q625.595 602.658 625.296 601.936Q624.996 601.214 624.732 600.478Q624.468 599.742 624.24 598.994Q624.012 598.246 623.821 597.488Q623.63 596.729 623.476 595.963C621.84 587.692 623.636 579.402 628.408 572.485C633.399 565.249 640.613 560.681 649.235 559.098Z"/>
	<path fill="white" d="M345.639 346.807C347.201 339.664 349.872 333.112 354.107 327.116C361.454 316.715 372.292 309.533 384.932 307.416C393.64 305.958 403.874 307.001 412.753 306.991L472.556 307.012L562.047 306.972C576.194 306.987 592.91 306.001 606.811 307.533C614.084 308.334 620.052 310.796 626.023 315.044C636.626 322.589 642.646 333.426 644.816 346.118L644.508 346.121L644.55 346.821C642.069 348.415 575.494 348.211 567.121 347.866Q562.412 347.715 557.799 346.755C543.447 343.69 544.672 331.389 534.323 325.26C532.01 323.891 529.478 323.243 526.833 322.924C518.958 321.974 510.686 322.423 502.761 322.452C485.625 322.517 468.509 323.012 451.367 322.999C449.224 331.181 446.778 341.399 438.906 346.06C436.032 347.762 432.024 348.56 428.707 348.843C418.164 349.742 407.055 348.665 396.436 348.691L357.662 348.905C354.506 348.91 350.528 349.654 347.454 348.897C346.829 348.743 346.759 348.676 346.266 348.416L345.639 346.807Z"/>
	<path fill="#D7E4F3" d="M387.624 324.357C388.182 324.428 388.576 324.462 389.102 324.58Q389.408 324.651 389.705 324.753Q390.002 324.855 390.286 324.988Q390.571 325.121 390.84 325.284Q391.108 325.446 391.359 325.636Q391.609 325.825 391.838 326.04Q392.067 326.255 392.272 326.493Q392.477 326.731 392.656 326.989Q392.834 327.247 392.985 327.523C393.912 329.207 393.891 331.185 393.224 332.957C392.345 335.291 390.995 336.063 388.79 337.039C386.998 336.752 385.346 336.166 384.15 334.735C383.073 333.447 382.728 331.88 383.002 330.254C383.505 327.266 385.217 325.939 387.624 324.357Z"/>
	<path fill="#D7E4F3" d="M405.38 325.071C407.827 324.778 409.795 324.612 411.894 326.11C413.172 327.021 413.881 328.344 413.932 329.916C414.019 332.598 412.242 334.543 410.438 336.275Q409.254 336.418 408.063 336.492C406.324 336.583 404.616 336.066 403.396 334.755C402.259 333.534 401.725 332.16 401.873 330.501C402.103 327.913 403.465 326.648 405.38 325.071Z"/>
	<path fill="#D7E4F3" d="M426.645 324.926C427.652 324.965 428.721 324.975 429.704 325.213C431.072 325.544 432.381 326.518 433.082 327.738C433.882 329.129 433.95 330.729 433.488 332.252C432.688 334.884 431.044 336.058 428.711 337.308C427.914 337.26 427.042 337.134 426.278 336.91C424.725 336.453 423.295 335.278 422.514 333.866C421.703 332.402 421.668 330.643 422.143 329.063C422.851 326.712 424.625 325.98 426.645 324.926Z"/>
	<path fill="#D7E4F3" d="M366.41 325.472C367.647 325.319 369.051 325.235 370.286 325.456C371.554 325.682 372.962 326.602 373.644 327.717C374.398 328.949 374.565 330.236 374.302 331.636C373.799 334.308 371.938 335.94 369.788 337.378C369.376 337.389 368.963 337.406 368.551 337.385C366.553 337.286 364.334 336.573 363.142 334.856C362.434 333.835 362.241 332.564 362.373 331.352C362.682 328.498 364.359 327.244 366.41 325.472Z"/>
	<path fill="#F4793D" d="M197.367 827.617C219.295 839.981 240.44 853.954 261.956 867.038L419.652 964.604L393.314 997.473C388.398 1003.57 381.912 1010.33 378.336 1017.28C355.282 1017.57 332.172 1017.11 309.111 1017.05L150.984 1016.98C121.847 1017.01 92.6603 1016.69 63.5297 1017.23C68.2836 1011.78 72.2667 1004.95 76.5562 999.064L108.458 955.228L153.363 892.119C168.484 870.955 183.962 849.922 197.367 827.617Z"/>
	<path fill="#FEEEEB" d="M389.328 472.707C394.138 472.766 398.952 473.309 402.934 476.283C406.968 479.296 408.576 484.175 409.186 488.996C411.798 509.627 388.863 538.464 377.15 554.644C369.808 564.786 362.475 574.916 354.565 584.628C349.084 591.358 343.156 597.73 337.771 604.533C338.179 610.239 337.849 616.143 337.825 621.868Q337.748 637.407 337.829 652.946Q338.15 711.637 337.826 770.329L337.859 799.504C337.863 807.721 337.352 816.234 338.92 824.338C341.006 835.122 346.261 844.747 353.805 852.703Q355.279 854.253 356.861 855.694Q358.442 857.134 360.122 858.458Q361.803 859.781 363.574 860.981Q365.345 862.18 367.198 863.25Q369.05 864.32 370.974 865.254Q372.899 866.188 374.885 866.982Q376.871 867.776 378.909 868.426Q380.948 869.075 383.027 869.577C394.13 872.252 410.017 870.936 421.646 870.928C446.067 870.91 470.528 870.452 494.944 871.033C478.372 890.965 462.378 911.423 446.199 931.677C438.021 941.913 430.105 952.786 421.076 962.27Q407.689 953.932 394.414 945.416C365.959 928.233 338.044 910.142 309.774 892.654Q254.351 858.9 199.294 824.553C232.914 783.01 231.254 727.601 231.141 677.163C231.107 661.84 230.021 645.859 233.208 630.786C236.863 613.502 245.439 597.247 256.818 583.846C269.904 568.436 285.89 553.706 300.123 539.185C317.591 521.365 336.698 498.257 357.464 484.587C367.463 478.005 377.341 473.702 389.328 472.707Z"/>
	<path fill="#D7E4F3" d="M451.367 322.999C468.509 323.012 485.625 322.517 502.761 322.452C510.686 322.423 518.958 321.974 526.833 322.924C529.478 323.243 532.01 323.891 534.323 325.26C544.672 331.389 543.447 343.69 557.799 346.755Q562.412 347.715 567.121 347.866C575.494 348.211 642.069 348.415 644.55 346.821L644.508 346.121L644.816 346.118C645.823 353.898 645.244 362.306 645.227 370.152L645.2 410.616L645.121 556.327C635.462 559.757 627.231 566.658 622.855 576.04C619.104 584.081 618.868 593.705 621.963 602.005C625.005 610.161 631.85 617.982 639.822 621.6C641.496 622.36 643.277 622.913 645.028 623.469C645.104 647.68 645.825 672.109 645 696.298C636.671 706.102 636.243 709.263 632.405 721.274C621.816 704.079 612.946 685.616 602.991 668.021Q590.341 645.98 578.133 623.691C574.182 616.539 569.769 609.461 566.352 602.043C559.174 590.547 550.103 568.526 541.783 559.671C538.718 556.41 535.431 554.329 531.447 552.378L527.976 551.166C524.038 549.899 519.773 549.988 515.682 549.945C514.82 543.32 512.571 537.176 507.076 532.94Q506.731 532.669 506.372 532.417Q506.014 532.164 505.642 531.93Q505.271 531.697 504.888 531.483Q504.506 531.268 504.112 531.074Q503.719 530.88 503.316 530.707Q502.913 530.534 502.502 530.381Q502.091 530.229 501.672 530.098Q501.253 529.967 500.828 529.858Q500.404 529.749 499.974 529.662Q499.544 529.575 499.11 529.51Q498.676 529.446 498.24 529.404Q497.803 529.362 497.365 529.342Q496.927 529.323 496.488 529.326Q496.049 529.33 495.611 529.356Q495.174 529.382 494.738 529.43Q494.302 529.479 493.869 529.55C487.788 530.523 484.395 534.255 480.916 538.929L481.098 539.585C478.839 540.533 478.13 541.664 477.187 543.91C476.827 544.767 476.485 545.633 476.209 546.521C474.57 556.663 476.905 565.653 482.937 573.969Q483.863 575.241 484.822 576.488C483.978 581.061 483.494 584.993 484.16 589.643C486.425 600.218 492.189 609.064 497.256 618.457C502.468 628.119 507.822 638.009 512.237 648.059C519.39 662.032 526.99 675.815 533.912 689.897C536.5 694.405 538.996 699.292 541.089 704.046C554.261 728.877 567.451 753.943 579.447 779.361C591.227 804.323 601.857 829.821 614.333 854.454C612.613 857.296 610.909 859.906 608.733 862.423C606.481 862.478 604.219 862.409 601.966 862.387C597.685 854.207 594.769 845.223 591.557 836.588C585.458 820.193 577.339 801.214 564.122 789.305C551.643 778.061 537.063 776 520.933 776.76Q518.959 774.72 516.913 772.751Q516.322 772.179 515.702 771.637Q515.083 771.096 514.437 770.586Q513.791 770.076 513.121 769.599Q512.451 769.121 511.757 768.678Q511.064 768.236 510.349 767.828Q509.634 767.42 508.9 767.049Q508.166 766.677 507.414 766.343Q506.662 766.009 505.894 765.713Q505.126 765.417 504.345 765.16Q503.563 764.902 502.77 764.684Q501.976 764.466 501.173 764.288Q500.37 764.11 499.558 763.973Q498.747 763.836 497.93 763.739Q497.113 763.642 496.292 763.586Q495.471 763.531 494.648 763.516Q493.825 763.501 493.003 763.528C484.443 763.89 476.315 768.34 470.6 774.606Q470.055 775.207 469.54 775.833Q469.025 776.46 468.541 777.111Q468.057 777.762 467.606 778.435Q467.154 779.109 466.737 779.804Q466.319 780.5 465.935 781.214Q465.552 781.929 465.204 782.662Q464.856 783.394 464.544 784.143Q464.232 784.892 463.958 785.655Q463.683 786.418 463.446 787.194Q463.209 787.969 463.01 788.756Q462.811 789.542 462.651 790.337Q462.49 791.132 462.369 791.934Q462.248 792.736 462.166 793.543Q462.084 794.35 462.042 795.16Q462 795.97 461.997 796.781Q461.995 797.592 462.032 798.402C462.45 806.58 465.749 814.261 471.87 819.777C479.929 827.04 488.969 828.443 499.466 827.844C505.222 840.105 512.428 851.683 518.978 863.533L441.929 863.325C427.047 863.285 412.05 863.706 397.183 863.252C382.577 862.805 369.503 857.926 359.37 847.127C353.012 840.352 348.413 831.592 346.785 822.424C345.063 812.724 345.824 802.101 345.83 792.269L345.859 744.516C345.867 696.764 344.566 647.851 345.867 600.227C350.158 593.823 355.739 587.882 360.53 581.811C376.647 561.386 409.498 520.495 412.381 495.25C413.099 488.96 411.796 481.258 407.628 476.344C403.86 471.901 398.529 469.663 392.771 469.379C375.621 468.532 358.055 478.879 345.655 489.77Q346.039 418.288 345.639 346.807L346.266 348.416C346.759 348.676 346.829 348.743 347.454 348.897C350.528 349.654 354.506 348.91 357.662 348.905L396.436 348.691C407.055 348.665 418.164 349.742 428.707 348.843C432.024 348.56 436.032 347.762 438.906 346.06C446.778 341.399 449.224 331.181 451.367 322.999Z"/>
	<path fill="#F4793D" d="M579.337 565.683C584.958 565.019 590.93 565.392 596.601 565.382C604.768 565.368 613.036 565.126 621.191 565.508C623.245 565.604 623.966 565.77 625.376 567.329C620.56 568.02 584.603 568.466 580.688 567.467C579.863 567.257 579.713 566.389 579.337 565.683Z"/>
	<path fill="#8FBCF3" d="M373.975 710.598C378.035 710.25 381.683 710.128 385.462 712.012C389.035 713.793 391.492 717.055 392.762 720.788C394.899 727.07 395.041 753.621 391.931 759.233C389.643 763.36 386.306 765.173 381.881 766.315C378.701 766.566 375.793 766.558 372.73 765.546C368.809 764.251 365.766 761.458 363.998 757.739C361.073 751.59 360.863 726.306 363.359 719.843C365.167 715.16 369.617 712.549 373.975 710.598Z"/>
	<path fill="#8FBCF3" d="M423.563 702.604C427.083 702.435 430.058 702.5 433.36 703.987C437.364 705.789 440.106 709.331 441.538 713.417C443.918 720.212 443.88 753.142 440.955 758.701C438.751 762.89 434.455 765.126 430.115 766.456C426.987 766.642 424.204 766.686 421.192 765.594C417.445 764.236 414.639 761.504 412.973 757.902C411.94 755.671 411.448 753.331 411.165 750.902C410.44 744.679 410.373 717.279 412.388 712.163C414.427 706.988 418.676 704.564 423.563 702.604Z"/>
	<path fill="#8FBCF3" d="M541.089 704.046C537.615 706.668 542.597 738.353 538.135 745.989C536.281 749.162 531.752 753.11 528.063 753.975C524.145 754.893 519.198 754.115 515.895 751.801C512.188 749.204 510.144 745.288 509.526 740.876C508.418 732.966 508.201 707.562 509.715 699.955C510.175 697.642 510.969 695.637 512.439 693.77C520.509 683.518 527.532 691.192 533.374 690.074C533.559 690.038 533.733 689.956 533.912 689.897C536.5 694.405 538.996 699.292 541.089 704.046Z"/>
	<path fill="#8FBCF3" d="M474.961 670.645C478.96 670.86 482.604 671.922 485.74 674.519C490.078 678.111 490.994 683.391 491.353 688.719C491.961 697.76 492.351 735.189 490.493 742.507C490.002 744.44 488.618 746.304 487.282 747.746C484.28 750.984 480.805 751.822 476.579 752.087C472.65 751.651 469.024 750.89 465.713 748.582C461.955 745.962 460.682 742.408 459.955 738.072C458.688 730.515 458.889 691.126 460.088 683.912C460.53 681.255 461.261 679.263 462.877 677.097C465.893 673.053 470.116 671.33 474.961 670.645Z"/>
	<path fill="white" d="M551.102 499.867C551.127 499.652 551.155 499.436 551.178 499.22C552.094 490.666 551.583 481.643 551.576 473.026L551.527 427.857C551.523 419.836 550.573 410.573 552.408 402.771C553.312 398.925 555.746 395.477 558.799 393.012C563.276 389.397 569.06 387.945 574.739 388.68Q575.274 388.752 575.804 388.851Q576.334 388.95 576.859 389.075Q577.384 389.2 577.901 389.351Q578.419 389.502 578.929 389.679Q579.439 389.856 579.939 390.058Q580.439 390.26 580.928 390.487Q581.418 390.714 581.895 390.965Q582.373 391.216 582.837 391.491Q583.301 391.765 583.751 392.062Q584.201 392.36 584.636 392.68Q585.071 392.999 585.489 393.34Q585.907 393.681 586.307 394.042Q586.708 394.403 587.09 394.784Q587.472 395.165 587.835 395.565Q588.197 395.964 588.539 396.381Q588.881 396.798 589.202 397.232C591.245 399.962 591.808 402.508 592.189 405.828C593.517 417.379 592.498 429.891 592.559 441.551L592.432 476.701C592.413 484.268 593.078 492.503 591.8 499.941C590.913 505.108 587.238 509.722 582.949 512.576C578.529 515.516 573.064 515.54 568.051 514.342C566.436 513.956 564.903 513.445 563.344 512.884C562.698 512.652 562.966 512.724 562.223 512.671C558.212 509.343 554.713 503.784 551.102 499.867Z"/>
	<path fill="white" d="M471.989 482.229C471.705 463.056 472.595 443.78 472.423 424.577L472.335 386.977C472.357 380.482 471.865 373.399 472.892 367.005C473.496 363.246 475.038 359.873 477.62 357.054C481.574 352.736 486.751 350.411 492.585 350.349C498.46 350.286 503.918 352.754 507.99 356.959C510.417 359.466 512.238 362.528 512.883 365.982C513.985 371.89 513.63 378.276 513.681 384.26Q513.89 399.566 513.648 414.871C513.479 436.331 514.031 457.81 513.454 479.266C499.54 475.599 485.276 476.724 471.989 482.229Z"/>
	<path fill="#F6AFA4" d="M471.989 482.229C485.276 476.724 499.54 475.599 513.454 479.266C527.29 482.475 541.146 489.647 551.102 499.867C554.713 503.784 558.212 509.343 562.223 512.671C574.756 532.539 580.091 555.445 574.939 578.728C573.128 586.912 569.766 594.437 566.352 602.043C559.174 590.547 550.103 568.526 541.783 559.671C538.718 556.41 535.431 554.329 531.447 552.378L527.976 551.166C524.038 549.899 519.773 549.988 515.682 549.945C514.82 543.32 512.571 537.176 507.076 532.94Q506.731 532.669 506.372 532.417Q506.014 532.164 505.642 531.93Q505.271 531.697 504.888 531.483Q504.506 531.268 504.112 531.074Q503.719 530.88 503.316 530.707Q502.913 530.534 502.502 530.381Q502.091 530.229 501.672 530.098Q501.253 529.967 500.828 529.858Q500.404 529.749 499.974 529.662Q499.544 529.575 499.11 529.51Q498.676 529.446 498.24 529.404Q497.803 529.362 497.365 529.342Q496.927 529.323 496.488 529.326Q496.049 529.33 495.611 529.356Q495.174 529.382 494.738 529.43Q494.302 529.479 493.869 529.55C487.788 530.523 484.395 534.255 480.916 538.929L481.098 539.585C478.839 540.533 478.13 541.664 477.187 543.91C476.827 544.767 476.485 545.633 476.209 546.521C474.57 556.663 476.905 565.653 482.937 573.969Q483.863 575.241 484.822 576.488C483.978 581.061 483.494 584.993 484.16 589.643C486.425 600.218 492.189 609.064 497.256 618.457C502.468 628.119 507.822 638.009 512.237 648.059C497.355 650.772 481.674 649.836 467.463 644.441C446.614 636.526 430.547 619.818 421.643 599.576C413.039 580.017 414.228 554.908 421.93 535.24C430.768 512.67 449.784 491.887 471.989 482.229Z"/>
	<path fill="white" d="M527.976 551.166L528.028 521.933C528.035 517.631 527.585 512.918 528.082 508.679C528.212 507.566 528.388 506.742 529.158 505.886C530.452 505.85 530.408 505.954 531.413 506.802C531.986 511.783 531.607 517.179 531.604 522.205L531.447 552.378L527.976 551.166Z"/>
	<path fill="white" d="M484.16 589.643C480.181 587.419 476.655 585.037 473.603 581.611C469.162 576.625 466.285 570.25 466.805 563.471C467.216 558.115 470.215 550.533 474.529 546.985C475.46 546.219 474.994 546.394 476.209 546.521C474.57 556.663 476.905 565.653 482.937 573.969Q483.863 575.241 484.822 576.488C483.978 581.061 483.494 584.993 484.16 589.643Z"/>
	<path fill="white" d="M457.333 506.725C458.748 507.115 459.717 507.159 460.737 508.24C461.906 521.77 461.012 536.088 461.043 549.709C461.103 575.827 461.35 602.082 460.494 628.184C459.177 628.09 458.535 627.97 457.436 627.226C457.1 626.56 456.921 626.016 456.891 625.265C456.576 617.412 456.867 609.434 456.892 601.569L457.174 554.277C457.306 538.517 456.351 522.435 457.333 506.725Z"/>
	<path fill="#FEEEEB" d="M547.837 575.349C556.559 589.407 563.811 604.473 571.785 618.967L609.685 686.499C613.532 693.437 627.878 722.26 632.273 725.742C633.049 725.799 633.327 726.02 633.958 725.451C636.864 722.832 637.08 714.341 638.699 710.5C643.516 699.071 657.088 691.366 669.105 691.083C678.706 690.857 688.909 694.179 695.828 700.963C698.526 703.608 700.642 707.299 703.539 709.651L704.4 709.503L704.159 709.892C704.24 709.757 704.337 709.63 704.403 709.486C705.687 706.67 704.788 701.841 705.2 698.718C706.541 688.538 714.8 678.371 723.932 674.089C731.915 670.345 741.915 670.371 750.108 673.446C754.531 675.106 758.722 677.658 762.055 681.026C770.24 689.294 781.557 712.641 787.578 723.691C788.487 725.36 791.489 731.28 793.499 730.391C793.524 728.888 793.406 727.751 792.771 726.369C791.415 723.418 789.331 720.743 787.78 717.872C783.305 709.584 778.669 701.246 774.383 692.858L774.989 692.915L776.309 693.572C776.993 693.322 777.36 693.402 777.669 692.676C778.658 690.35 778.38 687.046 778.875 684.517C780.508 676.164 787.807 667.529 795.381 663.953C802.756 660.47 812.149 660.287 819.754 663.123C838.98 670.292 845.812 692.316 855.12 708.749C858.045 713.914 861.841 718.558 864.902 723.639C867.257 727.549 869.101 731.965 870.964 736.13C877.93 751.705 885.392 767.019 892.612 782.475L964.797 933.437C972.027 948.44 979.079 963.551 986.496 978.46C992.524 990.578 1000.1 1003.8 1004.31 1016.58C999.925 1016.43 995.318 1016.85 990.903 1016.86L949.559 1017.2L855.469 1017.16L773.931 1017.13C759.205 1017.18 744.477 1017.6 729.751 1017.48C714.349 1017.35 698.892 1017.44 683.5 1017.16C661.05 1016.75 638.51 1015.99 616.058 1016.22C615.943 1015.02 615.547 1014.17 614.957 1013.14C610.126 1004.72 604.44 996.679 599.355 988.393L542.26 896.613Q528.726 874.391 515.821 851.798C510.924 843.255 505.701 834.693 501.453 825.805C497.05 816.595 494.723 807.151 492.026 797.389C500.6 789.62 509.918 782.764 521.446 780.231C529.241 778.519 537.213 779.325 544.741 781.823C571.224 790.611 581.74 819.896 590.649 843.706Q595.209 855.876 600.307 867.83C603.333 874.956 606.817 883.871 613.757 888.108C615.656 889.267 618.262 890.227 620.496 889.527C622.09 889.028 623.392 887.986 624.195 886.518C626.534 882.241 625.645 875.631 624.362 871.142C620.094 856.22 608.917 836.037 602.176 821.275C596.181 808.148 590.429 794.847 584.15 781.856C560.604 733.134 534.887 685.384 510.255 637.207C506.441 629.747 502.847 622.156 498.96 614.737C495.909 608.912 491.763 602.688 489.875 596.402C489.823 596.231 489.778 596.059 489.73 595.887C496.917 602.385 499.011 607.077 509.905 608.688C518.842 610.009 528.083 608.182 535.331 602.654C544.979 595.295 546.333 586.548 547.837 575.349Z"/>
	<path d="M707.526 722.677L709.397 723.179C712.37 726.012 730.991 754.884 731.571 758.172C729.755 758.065 729.214 758.068 727.999 756.676C724.272 752.407 709.765 730.245 707.722 725.241C707.374 724.39 707.458 723.571 707.526 722.677Z"/>
	<path d="M639.099 742.766C640.652 742.914 641.163 743.01 642.175 744.214C646.69 749.585 650.455 756.489 654.458 762.322C659.406 769.531 666.65 778.561 670.659 786.016C671.398 787.388 671.336 787.783 671.178 789.284C670.582 789.149 669.996 788.937 669.412 788.754C661.963 780.707 656.013 770.093 649.897 760.977C646.498 755.911 642.286 750.72 639.566 745.308C639.123 744.428 639.079 743.731 639.099 742.766Z"/>
</svg>
