<?xml version="1.0" encoding="utf-8" ?>
<svg xmlns="http://www.w3.org/2000/svg" xmlns:xlink="http://www.w3.org/1999/xlink" width="1024" height="1024">
	<path transform="scale(2 2)" d="M322.999 114.503C326.663 112.743 331.253 114.541 334.172 116.909C342.02 123.275 342.548 136.04 344.544 145.172C350.857 174.041 355.421 203.503 358.695 232.869C368.167 233.892 386.957 232.109 396.368 231.025C404.706 230.065 419.088 223.905 423.807 232.255C423.986 234.943 422.834 237.708 422.465 240.382C420.298 256.12 424.665 282.707 426.544 298.671C428.759 317.484 432.909 367.856 445.828 381.703C447.76 383.774 452.753 386.599 452.667 389.777C452.476 396.758 443.934 395.058 439.246 395.437C430.662 396.131 422.135 397.109 413.515 397.308C373.049 398.239 332.508 393.657 291.977 394.137C274.632 394.343 257.476 395.933 240.187 396.895C231.326 397.388 221.678 397.582 218.74 386.782C217.45 382.037 217.025 369.707 217.515 364.726C216.533 351.202 217.438 336.523 216.061 323.414C207.291 324.114 198.481 325.782 189.752 326.952L115.568 337.275C96.3824 340.04 93.7865 338.32 88.6527 318.233C79.3943 282.008 72.1449 243.05 65.5795 206.299L61.1331 180.141C57.4911 157.362 56.9279 148.869 80.2991 143.443C131.529 131.551 182.683 120.431 235.292 116.755C260.104 115.022 284.922 115.618 309.749 114.715C314.194 114.553 318.549 114.22 322.999 114.503ZM320.807 123.658C299.873 125.729 278.756 126.122 257.783 127.862C201.178 132.558 145.209 141.299 90.1809 155.457C86.1472 156.495 81.9764 157.313 78.0602 158.747C96.7895 172.869 115.494 186.954 134.602 200.564C154.353 214.159 188.878 240.42 210.457 249.732C221.746 242.966 237.032 227.161 246.345 217.789C270.502 193.477 294.79 168.351 315.629 141.058C319.672 135.762 323.27 129.915 328.308 125.504C327.394 124.874 326.49 124.221 325.532 123.658C323.945 123.578 322.391 123.479 320.807 123.658ZM256.594 226.538C246.97 235.978 237.62 245.342 227.366 254.138C221.211 259.418 215.153 266.77 206.334 263.158C196.65 259.191 167.92 242.04 161.009 234.839C149.543 247.961 103.779 320.001 103.903 322.395C104.118 326.541 120.993 322.123 123.807 321.709L157.621 317.069C194.884 311.079 232.578 307.272 269.99 302.303C295.881 298.864 321.554 294.28 347.373 290.426C341.596 287.086 336.316 282.997 330.916 279.094L311.429 265.26C293.177 252.298 274.658 239.77 256.594 226.538ZM331.166 132.192C326.789 136.913 321.838 145.449 317.91 151.039C303.338 171.772 288.248 191.778 271.352 210.672C267.907 214.524 264.068 218.125 261.01 222.298C278.051 229.946 293.763 241.38 308.976 252.17L332.634 268.779C338.479 272.969 344.28 277.322 350.308 281.245C347.305 238.467 341.206 198.988 334.691 156.629C334.182 153.318 332.692 133.648 331.166 132.192ZM72.7334 164.325C78.3415 206.389 86.9546 248.142 95.8661 289.626C97.2708 296.164 98.3628 303.13 100.509 309.454C106.658 299.184 113.862 287.115 119.57 276.657C130.014 260.091 142.073 245.133 152.209 229.237C132.502 213.84 112.818 198.664 93.6292 182.6C90.4603 179.947 74.4967 165.046 72.7334 164.325ZM353.044 316.306C354.945 318.302 356.892 320.27 358.695 322.357C360.192 323.416 361.529 324.536 362.864 325.793C365.073 328.124 368.592 331.651 371.287 333.305C372.271 334.135 373.297 334.942 374.229 335.831C377.814 339.126 381.969 341.694 385.309 345.267C385.881 345.539 386.508 345.79 387.053 346.108C392.791 351.009 404.957 361.125 411.516 364.726L414.047 366.774C416.386 363.032 422.064 355.543 425.583 353.242C424.932 351.508 424.316 349.787 423.807 348.006C423.67 345.699 423.08 343.29 422.712 341.003L420.724 328.155L419.759 321.172C419.256 317.253 418.397 313.421 418.3 309.454C417.649 306.478 417.266 303.599 417.024 300.565C416.266 296.976 415.896 293.281 415.399 289.647L414.047 279.136C413.636 275.571 413.159 272.029 412.608 268.484C412.375 264.951 412.029 261.483 411.516 257.977C411.6 255.229 411.548 252.481 411.516 249.732C406.768 252.82 402.894 258.174 399.201 262.426C383.68 280.297 369.32 299.081 353.044 316.306ZM287.279 329.777C280.533 337.155 274.12 344.874 267.392 352.29L268.067 352.593C268.506 356.234 246.83 379.303 245.697 386.314C250.207 386.144 254.749 386.151 259.19 385.285L267.392 385.285L279.775 385.285C289.667 371.226 302.083 359.168 313.193 346.108C309.467 345.304 306.866 343.842 303.699 341.737L299.135 338.66C295.208 335.676 291.323 332.599 287.279 329.777ZM347.373 322.357C341.462 327.437 329.069 337.974 324.203 343.226C320.66 344.654 317.007 345.766 313.193 346.108C302.083 359.168 289.667 371.226 279.775 385.285C283.06 385.196 286.345 385.054 289.627 385.285L301.616 385.285C306.41 384.983 311.098 385.232 315.89 385.285C321.538 377.079 349.206 338.276 356.995 333.305C355.53 331.347 354.133 329.751 352.263 328.155C350.792 326.06 349.141 324.203 347.373 322.357ZM356.995 333.305C349.206 338.276 321.538 377.079 315.89 385.285C319.524 385.402 323.158 385.594 326.787 385.285C331.709 385.759 336.608 385.791 341.547 385.874C344.014 383.212 346.97 377.37 349.141 374.09C354.555 365.909 364.443 352.086 371.287 345.267C369.126 343.384 366.887 341.658 364.945 339.539C362.348 337.63 360.008 334.395 356.995 333.305ZM371.287 345.267C364.443 352.086 354.555 365.909 349.141 374.09C346.97 377.37 344.014 383.212 341.547 385.874C345.384 386.258 349.188 386.354 353.044 386.314C356.036 386.562 359.099 386.667 362.073 387.043C366.692 378.3 376.515 363.3 383.407 355.596C381.959 354.323 380.432 353.312 378.8 352.29C377.203 349.558 373.702 347.244 371.287 345.267ZM383.407 355.596C376.515 363.3 366.692 378.3 362.073 387.043C365.826 387.057 369.672 387.26 373.415 387.043C376.123 387.239 378.86 387.516 381.575 387.545C383.617 381.539 392.003 370.909 396.272 365.776L390.791 361.767C389.087 359.757 385.548 357.355 383.407 355.596ZM396.272 365.776C392.003 370.909 383.617 381.539 381.575 387.545C385.775 387.557 390.282 387.944 394.452 387.545C396.782 387.685 399.07 387.705 401.4 387.545C403.122 383.168 405.798 379.025 408.335 375.077C406.858 373.859 405.213 372.854 403.608 371.814C401.695 369.395 398.758 367.575 396.272 365.776ZM408.335 375.077C405.798 379.025 403.122 383.168 401.4 387.545C405.644 387.576 409.823 387.486 414.047 387.043L417.024 387.043C417.676 385.288 418.264 384.034 419.759 382.83L418.3 381.796C415.154 379.409 411.694 377.159 408.335 375.077ZM267.392 352.29C267.387 352.589 267.352 352.947 267.392 353.242C265.736 356.589 248.023 375.37 245.697 377.037C244.242 379.447 238.792 384.523 238.282 386.314L245.697 386.314C246.83 379.303 268.506 356.234 268.067 352.593L267.392 352.29ZM428.26 367.55C426.85 369.618 425.498 371.769 423.807 373.62C425.036 374.291 426.17 375.001 427.305 375.822C427.843 374.238 428.367 372.946 429.638 371.814C429.145 370.401 428.695 368.982 428.26 367.55Z"/>
	<path fill="#FECA05" transform="scale(2 2)" d="M429.638 371.814C430.787 374.456 431.977 377.095 432.995 379.79C431.131 378.411 429.242 377.096 427.305 375.822C427.843 374.238 428.367 372.946 429.638 371.814Z"/>
	<path fill="#FECA05" transform="scale(2 2)" d="M419.759 382.83C421.807 384.142 423.648 385.587 425.583 387.043C422.706 386.885 419.889 387.095 417.024 387.043C417.676 385.288 418.264 384.034 419.759 382.83Z"/>
	<path fill="#FECA05" transform="scale(2 2)" d="M245.697 375.077C249.127 369.921 262.965 356.288 267.392 353.242C265.736 356.589 248.023 375.37 245.697 377.037C244.242 379.447 238.792 384.523 238.282 386.314C237.354 386.512 236.448 386.781 235.536 387.043C238.447 382.754 242.087 378.789 245.697 375.077Z"/>
	<path fill="#FECA05" transform="scale(2 2)" d="M408.335 375.077C411.694 377.159 415.154 379.409 418.3 381.796L419.759 382.83C418.264 384.034 417.676 385.288 417.024 387.043L414.047 387.043C409.823 387.486 405.644 387.576 401.4 387.545C403.122 383.168 405.798 379.025 408.335 375.077ZM418.3 381.796C417.407 382.834 414.181 385.971 414.047 387.043L417.024 387.043C417.676 385.288 418.264 384.034 419.759 382.83L418.3 381.796Z"/>
	<path fill="#FECA05" transform="scale(2 2)" d="M425.583 353.242C425.753 358.162 427.435 362.747 428.26 367.55C426.85 369.618 425.498 371.769 423.807 373.62C420.513 371.403 417.287 369.069 414.047 366.774C416.386 363.032 422.064 355.543 425.583 353.242Z"/>
	<path fill="#FECA05" transform="scale(2 2)" d="M396.272 365.776C398.758 367.575 401.695 369.395 403.608 371.814C405.213 372.854 406.858 373.859 408.335 375.077C405.798 379.025 403.122 383.168 401.4 387.545C399.07 387.705 396.782 387.685 394.452 387.545C390.282 387.944 385.775 387.557 381.575 387.545C383.617 381.539 392.003 370.909 396.272 365.776ZM403.608 371.814C401.7 374.661 394.868 384.876 394.034 387.285L394.452 387.545C396.782 387.685 399.07 387.705 401.4 387.545C403.122 383.168 405.798 379.025 408.335 375.077C406.858 373.859 405.213 372.854 403.608 371.814Z"/>
	<path fill="#FECA05" transform="scale(2 2)" d="M383.407 355.596C385.548 357.355 389.087 359.757 390.791 361.767L396.272 365.776C392.003 370.909 383.617 381.539 381.575 387.545C378.86 387.516 376.123 387.239 373.415 387.043C369.672 387.26 365.826 387.057 362.073 387.043C366.692 378.3 376.515 363.3 383.407 355.596ZM373.415 387.043C376.123 387.239 378.86 387.516 381.575 387.545C383.617 381.539 392.003 370.909 396.272 365.776L390.791 361.767C385.35 370.328 379.236 378.724 373.415 387.043Z"/>
	<path fill="#FECA05" transform="scale(2 2)" d="M371.287 345.267C373.702 347.244 377.203 349.558 378.8 352.29C380.432 353.312 381.959 354.323 383.407 355.596C376.515 363.3 366.692 378.3 362.073 387.043C359.099 386.667 356.036 386.562 353.044 386.314C349.188 386.354 345.384 386.258 341.547 385.874C344.014 383.212 346.97 377.37 349.141 374.09C354.555 365.909 364.443 352.086 371.287 345.267ZM353.044 386.314C356.036 386.562 359.099 386.667 362.073 387.043C366.692 378.3 376.515 363.3 383.407 355.596C381.959 354.323 380.432 353.312 378.8 352.29C375.834 355.685 353.701 382.93 353.044 386.314Z"/>
	<path fill="#FECA05" transform="scale(2 2)" d="M349.431 304.867L349.4 305.107C342.087 313.474 320.992 335.957 313.193 337.221C309.126 335.878 296.726 327.321 293.209 324.214C288.586 322.091 283.419 318.716 279.775 315.175C303.034 312.292 326.312 308.709 349.431 304.867Z"/>
	<path fill="#FECA05" transform="scale(2 2)" d="M399.841 238.538C401.916 238.47 403.994 238.515 406.07 238.538C392.468 253.162 377.532 271.511 364.945 286.959C363.198 288.854 363.29 277.564 363.078 275.431C361.923 263.805 360.65 252.162 359.627 240.526C366.329 240.915 373.256 240.22 379.953 239.761L399.841 238.538Z"/>
	<path fill="#FECA05" transform="scale(2 2)" d="M356.995 333.305C360.008 334.395 362.348 337.63 364.945 339.539C366.887 341.658 369.126 343.384 371.287 345.267C364.443 352.086 354.555 365.909 349.141 374.09C346.97 377.37 344.014 383.212 341.547 385.874C336.608 385.791 331.709 385.759 326.787 385.285C323.158 385.594 319.524 385.402 315.89 385.285C321.538 377.079 349.206 338.276 356.995 333.305ZM364.945 339.539C356.331 348.647 346.049 360.292 338.18 370.252C334.28 375.186 330.845 380.468 326.787 385.285C331.709 385.759 336.608 385.791 341.547 385.874C344.014 383.212 346.97 377.37 349.141 374.09C354.555 365.909 364.443 352.086 371.287 345.267C369.126 343.384 366.887 341.658 364.945 339.539Z"/>
	<path fill="#FECA05" transform="scale(2 2)" d="M347.373 322.357C349.141 324.203 350.792 326.06 352.263 328.155C354.133 329.751 355.53 331.347 356.995 333.305C349.206 338.276 321.538 377.079 315.89 385.285C311.098 385.232 306.41 384.983 301.616 385.285L289.627 385.285C286.345 385.054 283.06 385.196 279.775 385.285C289.667 371.226 302.083 359.168 313.193 346.108C317.007 345.766 320.66 344.654 324.203 343.226C329.069 337.974 341.462 327.437 347.373 322.357ZM352.263 328.155C349.709 331.195 346.858 334.02 344.126 336.9L330.052 351.736C321.584 360.684 307.838 375.64 301.616 385.285C306.41 384.983 311.098 385.232 315.89 385.285C321.538 377.079 349.206 338.276 356.995 333.305C355.53 331.347 354.133 329.751 352.263 328.155ZM324.203 343.226C320.66 344.654 317.007 345.766 313.193 346.108C302.083 359.168 289.667 371.226 279.775 385.285C283.06 385.196 286.345 385.054 289.627 385.285C297.144 374.174 305.826 363.615 314.729 353.59C316.049 352.104 324.022 344.303 324.203 343.226Z"/>
	<path fill="#FECA05" transform="scale(2 2)" d="M287.279 329.777C291.323 332.599 295.208 335.676 299.135 338.66L303.699 341.737C306.866 343.842 309.467 345.304 313.193 346.108C302.083 359.168 289.667 371.226 279.775 385.285L267.392 385.285L259.19 385.285C254.749 386.151 250.207 386.144 245.697 386.314C246.83 379.303 268.506 356.234 268.067 352.593L267.392 352.29C274.12 344.874 280.533 337.155 287.279 329.777ZM299.135 338.66C295.81 344.576 289.372 350.381 284.835 355.627L269.937 372.804C268.455 374.528 259.509 384.219 259.19 385.285L267.392 385.285C273.689 374.729 293.57 350.526 303.699 341.737L299.135 338.66Z"/>
	<path fill="#FECA05" transform="scale(2 2)" d="M303.699 341.737C306.866 343.842 309.467 345.304 313.193 346.108C302.083 359.168 289.667 371.226 279.775 385.285L267.392 385.285C273.689 374.729 293.57 350.526 303.699 341.737Z"/>
	<path fill="#FECA05" transform="scale(2 2)" d="M267.392 317.069C269.231 316.442 276.735 322.892 278.639 324.214C274.721 328.753 270.292 332.956 266.23 337.389L231.676 375.077C230.463 376.701 229.133 378.238 227.831 379.79C225.384 365.197 223.743 336.958 224.536 322.357C238.798 320.829 253.069 317.87 267.392 317.069Z"/>
	<path fill="#FECA05" transform="scale(2 2)" d="M353.044 316.306C369.32 299.081 383.68 280.297 399.201 262.426C402.894 258.174 406.768 252.82 411.516 249.732C411.548 252.481 411.6 255.229 411.516 257.977C412.029 261.483 412.375 264.951 412.608 268.484C413.159 272.029 413.636 275.571 414.047 279.136L415.399 289.647C415.896 293.281 416.266 296.976 417.024 300.565C417.266 303.599 417.649 306.478 418.3 309.454C418.397 313.421 419.256 317.253 419.759 321.172L420.724 328.155L422.712 341.003C423.08 343.29 423.67 345.699 423.807 348.006C424.316 349.787 424.932 351.508 425.583 353.242C422.064 355.543 416.386 363.032 414.047 366.774L411.516 364.726C404.957 361.125 392.791 351.009 387.053 346.108C386.508 345.79 385.881 345.539 385.309 345.267C381.969 341.694 377.814 339.126 374.229 335.831C373.297 334.942 372.271 334.135 371.287 333.305C368.592 331.651 365.073 328.124 362.864 325.793C361.529 324.536 360.192 323.416 358.695 322.357C356.892 320.27 354.945 318.302 353.044 316.306ZM417.024 300.565C411.597 306.322 400.427 322.72 396.272 330.548C400.888 326.37 414.04 311.142 418.3 309.454C417.649 306.478 417.266 303.599 417.024 300.565ZM423.807 348.006C419.802 353.581 414.69 358.622 411.516 364.726L414.047 366.774C416.386 363.032 422.064 355.543 425.583 353.242C424.932 351.508 424.316 349.787 423.807 348.006ZM419.759 321.172C414.88 327.789 408.998 335.529 406.07 343.226C410.799 338.108 415.725 333.015 420.724 328.155L419.759 321.172ZM371.287 309.454C367.384 313.157 362.378 318.441 358.695 322.357C360.192 323.416 361.529 324.536 362.864 325.793C365.101 320.115 368.404 314.823 371.287 309.454ZM371.287 333.305C372.271 334.135 373.297 334.942 374.229 335.831C376.496 331.835 378.843 327.914 381.575 324.214C377.722 327.077 374.534 329.627 371.287 333.305ZM385.309 345.267C385.881 345.539 386.508 345.79 387.053 346.108C389.123 342.656 391.223 339.223 393.391 335.831C390.202 338.467 387.406 341.699 385.309 345.267Z"/>
	<path fill="#FEFEFE" transform="scale(2 2)" d="M389.552 315.175C396.005 302.37 404.652 289.882 414.047 279.136L415.399 289.647C405.74 296.607 397.861 307.005 389.552 315.175Z"/>
	<path fill="#FEFEFE" transform="scale(2 2)" d="M377.559 301.756C380.206 294.023 404.567 265.988 411.516 257.977C412.029 261.483 412.375 264.951 412.608 268.484C401.141 277.087 387.702 291.539 377.559 301.756Z"/>
	<path fill="#FECA05" transform="scale(2 2)" d="M234.388 201.592C238.875 201.214 240.593 207.133 236.11 208.433C233.501 209.189 230.568 209.509 227.893 210.005C214.282 212.527 200.906 216.339 187.305 218.713C183.168 218.975 180.645 213.543 185.388 211.909C195.501 208.425 224.168 202.675 234.388 201.592Z"/>
	<path fill="#FECA05" transform="scale(2 2)" d="M261.01 176.326C263.782 176.026 267.487 178.556 265.439 181.557C263.852 183.883 257.672 184.181 255.142 184.598L213.438 192.259C195.855 195.625 178.473 200.315 161.009 204.244C159.169 204.512 156.919 203.773 156.366 201.782C155.035 196.991 164.302 196.109 167.167 195.41C198.289 187.817 229.465 181.769 261.01 176.326Z"/>
	<path fill="#FECA05" transform="scale(2 2)" d="M275.812 155.837C279.324 155.429 283.776 156.813 281.195 160.961C280.002 162.877 274.626 163.18 272.488 163.488L245.698 167.625C210.378 172.991 177.926 179.971 143.307 186.78C138.169 187.493 134.392 182.684 140.347 180.325C143.643 179.02 147.555 178.49 151.016 177.733C192.305 168.697 233.99 161.892 275.812 155.837Z"/>
</svg>
