<?xml version="1.0" encoding="utf-8" ?>
<svg xmlns="http://www.w3.org/2000/svg" xmlns:xlink="http://www.w3.org/1999/xlink" width="1024" height="1024">
	<path fill="white" d="M0 0L1024 0L1024 1024L0 1024L0 0Z"/>
	<path fill="#010001" d="M323.463 494.686C326.043 494.478 328.676 494.226 331.249 494.621C335.721 495.307 339.151 497.397 341.808 501.002C345.145 505.529 347.741 510.578 350.79 515.296C353.447 519.408 356.924 523.196 359.088 527.598C360.266 529.997 361.536 532.834 361.069 535.556C359.957 542.03 355.635 545.66 351.826 550.502C346.977 556.665 343.635 561.829 337.258 566.577C337.12 571.012 337.292 575.487 337.34 579.925C341.233 580.152 345.098 580.568 348.877 581.571C354.769 583.135 360.979 586.148 365.282 590.548C373.918 599.377 381.755 616.506 387.805 627.564C397.058 644.479 406.106 661.42 415.879 678.048C422.531 678.17 429.267 678.248 435.902 677.739C443.96 657.257 453.668 637.387 462.449 617.209L479.235 578.923C482.679 570.966 485.804 562.768 489.7 555.023C496.278 554.709 503.002 554.978 509.593 554.972L547.076 554.922C573.832 554.89 600.789 554.288 627.53 554.926C629.072 554.963 630.547 555.068 631.664 556.248C631.136 561.81 625.563 571.914 623.062 577.516L603.612 620.471C600.086 628.233 596.116 636.032 593.137 644.014L592.912 644.632C603.932 644.078 614.444 643.864 624.691 648.687C637.844 654.877 648.58 669.265 658.557 679.765Q682.998 705.349 707.797 730.587C713.441 736.283 718.678 742.959 724.867 748.032C725.019 748.156 725.173 748.277 725.326 748.399L754.719 747.948C768.754 734.05 782.651 716.499 795.894 701.526C800.989 695.765 806.243 688.493 812.554 684.062C816.296 681.435 820.285 680.661 824.704 680.144C830.373 680.183 836.753 679.403 842.316 680.321C843.534 680.522 844.418 680.624 845.129 681.687C845.367 684.273 845.146 686.771 844.73 689.324C842.993 699.97 840.365 710.561 838.174 721.129L826.827 776.121C824.951 784.983 822.263 803.833 819.21 811.209C818.676 812.499 818.283 813.78 816.831 814.172C812.791 815.264 806.526 814.503 802.298 814.477L760.912 813.814C731.572 813.42 702.188 813.637 672.844 813.625L433.037 813.585Q403.2 813.551 373.364 813.835C361.32 813.948 348.894 814.71 336.915 813.434C319.557 811.585 301.25 804.563 287.178 794.228C266.974 779.39 258.508 758.32 254.777 734.278C252.202 717.686 251.594 700.447 252.571 683.697C254.092 657.636 261.913 616.207 277.569 595.057C285.323 584.583 296.285 580.952 308.76 579.175L308.6 567.985C304.236 566.07 300.914 563.415 296.943 560.916C294.491 559.372 291.825 558.179 289.375 556.636C286.304 554.702 283.535 551.782 282.873 548.103C281.668 541.411 284.658 533.949 285.356 527.287C285.705 523.957 283.901 520.579 284.567 517.209Q284.756 516.29 285.044 515.397Q285.333 514.505 285.717 513.649Q286.101 512.793 286.577 511.984Q287.052 511.175 287.613 510.423C295.27 499.987 311.434 496.296 323.463 494.686Z"/>
	<path fill="#C1DAF9" d="M598.521 647.7C608.942 646.037 620.518 649.045 629.306 654.673C638.566 660.603 645.954 670.695 653.461 678.653C669.792 695.968 686.576 712.876 703.138 729.97C710.883 737.963 718.198 747.467 727.001 754.257C732.498 758.497 738.805 761.268 745.366 763.403C744.927 767.798 744.753 772.27 745.207 776.67C746.746 791.57 755.145 802.155 766.373 811.378C733.924 810.576 701.383 811.296 668.919 811.077C654.927 795.436 640.086 780.44 625.653 765.201Q606.733 744.956 588.206 724.351C577.743 732.625 568.178 742.335 558.192 751.203C547.73 760.936 536.828 770.212 526.22 779.79C514.977 789.942 502.02 802.492 489.707 810.981C447.702 811.903 405.518 810.931 363.489 811.069C372.882 800.248 380.594 787.458 388.64 775.623C399.113 760.216 409.916 745.063 419.913 729.335C428.549 725.88 437.205 721.832 446.011 718.875C463.82 712.895 472.57 713.419 487.908 700.657C513.265 700.303 538.695 701.123 564.034 700.485C567.875 700.388 571.193 699.726 573.857 696.775C578.674 691.439 574.947 687.419 574.766 681.64C575.498 681.067 576.259 680.417 576.768 679.63C578.132 677.52 579.031 674.371 580.113 672.027L590.986 648.516L598.521 647.7Z"/>
	<path fill="#EE5F59" d="M305.392 582.654L307.228 582.56C308.789 583.761 310.18 591.307 312.241 593.867C314.396 596.543 318.255 597.83 321.563 598.196C325.629 598.646 330.131 597.618 333.296 594.939C337.089 591.728 337.171 587.792 337.455 583.195C341.909 583.41 346.147 583.725 350.423 585.065Q351.44 585.38 352.433 585.764Q353.426 586.149 354.391 586.601Q355.355 587.053 356.285 587.57Q357.216 588.087 358.109 588.668Q359.002 589.248 359.852 589.889Q360.703 590.529 361.508 591.227Q362.312 591.924 363.067 592.676Q363.821 593.427 364.522 594.229C372.97 603.759 381.189 621.726 387.457 633.322C395.525 648.249 403.893 663.017 411.826 678.015Q401.057 678.155 390.287 678.069C385.543 678.033 380.581 677.694 375.872 678.183C374.35 678.342 373.07 678.516 372.068 679.724L372.702 680.574C379.989 682.602 392.046 681.262 399.937 681.214C416.83 681.111 433.743 681.216 450.622 680.454C448.293 682.301 446.118 684.22 443.969 686.274C444.179 697.824 442.791 708.313 437.399 718.641C429.611 722.495 421.064 725.351 413.01 728.689C394.088 736.531 355.731 755.003 336.189 749.378C322.981 745.575 316.505 732.609 314.255 720.003C313.539 715.99 313.84 711.541 311.783 707.891L311.127 707.848C310.708 708.58 310.694 708.463 310.529 709.143C308.438 717.782 313.8 731.924 318.271 739.32C322.003 744.731 326.293 748.964 332.556 751.334C354.004 759.45 394.955 739.795 415.18 731.027C411.245 736.391 407.827 742.172 404.101 747.688L377.564 786.542C371.929 794.669 366.393 803.148 359.706 810.448C336.588 812.456 312.472 807.365 293.003 794.44C273.156 781.265 263.421 763.185 258.87 740.169C251.457 702.676 254.897 660.102 267.155 623.98C270.074 615.379 273.455 606.587 278.563 599.032C285.318 589.044 293.795 584.939 305.392 582.654Z"/>
	<path fill="#010001" d="M347.53 642.42C349.088 643.169 349.533 644.321 350.097 645.862C352.006 651.087 363.783 689.481 363.427 691.308C363.32 691.856 362.968 692.325 362.739 692.833L361.381 692.399C358.996 689.763 348.146 651.78 346.89 645.812C346.551 644.196 346.632 643.8 347.53 642.42Z"/>
	<path fill="white" d="M491.304 558.134C507.841 557.412 524.59 557.871 541.149 557.831Q584.749 557.661 628.347 558.059Q601.659 618.076 573.974 677.639L566.995 677.464L496.369 677.462L496.393 669.299C485.019 668.249 475.382 668.561 464.798 673.019C461.024 674.608 456.99 676.74 452.96 677.519C448.841 678.315 443.779 677.733 439.565 677.675C441.029 672.762 443.485 667.936 445.53 663.23L456.138 638.902L491.304 558.134Z"/>
	<path fill="#010001" d="M539.552 596.069C541.367 595.98 543.198 595.838 544.958 596.387C547.438 597.16 549.439 599.082 550.522 601.421C552.5 605.692 551.977 611.446 550.362 615.748C548.732 620.09 546.368 622.779 542.123 624.598C540.668 624.741 539.173 624.929 537.73 624.605C535.245 624.047 533.21 622.473 531.977 620.255C529.577 615.934 530.185 609.785 531.699 605.274C533.198 600.807 535.317 598.104 539.552 596.069Z"/>
	<path fill="white" d="M540.036 599.012C540.942 598.94 541.877 598.832 542.783 598.98C544.661 599.288 546.286 600.559 547.274 602.153C549.085 605.074 548.96 609.19 548.243 612.423C547.282 616.757 545.66 619.617 541.875 621.945C540.848 622.057 539.792 622.204 538.761 622.027C537.144 621.748 535.75 620.673 534.874 619.311C532.939 616.3 533.124 611.968 533.838 608.612C534.761 604.272 536.327 601.447 540.036 599.012Z"/>
	<path fill="#010001" d="M495.324 595.815C498.64 595.905 503.055 595.677 505.902 597.609C507.331 598.579 508.979 600.175 509.047 602.019C509.113 603.792 507.958 605.105 506.884 606.357C506.04 607.341 505.316 608.225 504.647 609.332C504.471 611.505 506.595 612.9 506.955 615.038C507.364 617.47 505.504 620.22 504.167 622.082C499.726 625.181 495.025 624.59 489.872 624.486Q492.695 610.169 495.324 595.815Z"/>
	<path fill="white" d="M495.532 611.514C497.187 611.498 498.942 611.411 500.556 611.839C502.101 612.248 502.928 613.011 503.718 614.398C504.033 616.988 502.871 618.714 501.396 620.72C499.881 621.191 497.849 621.756 496.267 621.641C495.006 621.549 494.811 621.246 494.093 620.347C493.64 617.533 494.87 614.261 495.532 611.514Z"/>
	<path fill="white" d="M498.139 599.285C500.053 599.313 502.692 599.197 504.153 600.659C504.735 601.241 505.152 601.931 505.175 602.753C505.237 604.873 504.061 606.115 502.751 607.612C501.548 607.945 500.139 608.472 498.887 608.438C497.805 608.409 497.65 608.097 496.95 607.368C496.492 604.817 497.578 601.793 498.139 599.285Z"/>
	<path fill="#010001" d="M565.938 596.574C567.876 596.365 570.873 595.843 572.703 596.672C573.943 597.234 574.167 597.789 574.599 598.951L574.137 599.696C571.822 600.458 569.502 599.64 567.127 599.613C565.721 599.597 564.545 600.227 563.627 601.275C561.047 604.217 559.301 611.177 559.716 615.044C559.941 617.141 560.842 619.239 562.676 620.409C563.952 621.223 565.563 621.502 567.026 621.086C568.596 620.64 569.554 619.662 570.201 618.198C570.866 616.691 570.549 614.864 569.972 613.402C568.997 613.201 568.165 613.076 567.286 612.584C566.479 612.133 566.488 611.177 566.237 610.334C568.774 610.141 571.368 610.248 573.914 610.248C573.511 614.561 572.804 618.865 572.199 623.155C569.584 624.044 567.081 624.783 564.302 624.226C561.717 623.709 559.53 622.214 558.219 619.918C556.06 616.137 556.375 611.083 557.531 607.038C558.936 602.119 561.495 599.006 565.938 596.574Z"/>
	<path fill="#010001" d="M516.22 596.425C517.47 596.389 518.245 596.316 519.446 596.768C519.147 599.449 518.388 602.102 517.961 604.773Q516.651 612.977 515.999 621.26C518.797 621.365 522.607 620.644 525.118 621.871L525.134 623.504C521.535 625.291 516.339 624.405 512.438 624.151C513.274 614.837 514.711 605.649 516.22 596.425Z"/>
	<path fill="#C1DAF9" d="M563.864 750.016C578.249 750.619 593.104 750.38 607.495 749.99C627.022 769.952 644.935 791.683 665.18 810.935L596.954 811.168L494.356 811.138C511.312 797.256 527.541 782.477 543.888 767.891C550.486 762.002 556.851 755.366 563.864 750.016Z"/>
	<path fill="white" d="M826.227 683.455C831.704 683.297 837.181 683.394 842.658 683.453L825.952 762.974C822.69 778.992 820.165 795.65 815.775 811.393Q807.25 811.454 798.725 811.314C803.031 797.744 805.167 783.15 807.89 769.181Q813.46 741.938 819.373 714.768C821.606 704.352 823.353 693.715 826.227 683.455Z"/>
	<path fill="white" d="M341.366 517.811C341.818 517.884 342.063 517.896 342.509 518.118C345.217 519.47 347.485 523.823 348.405 526.559Q348.663 527.317 348.883 528.087Q349.103 528.857 349.284 529.638Q349.466 530.418 349.608 531.206Q349.75 531.994 349.853 532.788Q349.956 533.583 350.019 534.381Q350.082 535.179 350.105 535.98Q350.129 536.78 350.112 537.581Q350.095 538.382 350.039 539.181Q349.982 539.98 349.886 540.775Q349.79 541.57 349.654 542.359Q349.519 543.149 349.344 543.93Q349.169 544.712 348.955 545.484Q348.742 546.256 348.49 547.016Q348.238 547.776 347.949 548.523Q347.66 549.27 347.333 550.001Q347.007 550.733 346.645 551.447C343.064 558.448 337.201 563.967 329.572 566.288C321.209 568.832 312.757 567.062 305.204 563.098C299.299 559.313 294.232 553.604 292.352 546.736C290.83 541.178 292.113 537.251 294.773 532.427Q304.491 529.737 314.321 527.492C321.217 525.987 328.958 525.47 335.363 522.417C337.593 521.354 339.525 519.438 341.366 517.811Z"/>
	<path fill="white" d="M482.637 672.205C486.27 671.889 489.887 672.092 493.506 672.452C493.464 679.988 492.484 687.522 488.594 694.122C481.045 706.931 465.192 710.343 451.883 713.849C448.579 714.783 445.302 715.828 442.019 716.833C445.78 707.21 446.757 697.621 447.372 687.404C458.121 678.297 468.549 673.198 482.637 672.205Z"/>
	<path fill="white" d="M496.229 680.43C511.192 679.855 526.312 680.29 541.29 680.314C549.077 680.327 560.277 679.304 567.61 680.89C569.459 681.29 570.828 682.786 571.698 684.386C573.026 686.829 573.422 690.095 572.524 692.747C571.665 695.284 569.437 696.362 567.166 697.38C558.518 697.796 549.748 697.53 541.084 697.543L490.354 697.484C493.468 691.889 495.133 686.732 496.229 680.43Z"/>
	<path fill="white" d="M333.661 568.111L334.168 568.726C334.571 575.231 336.004 584.901 332.367 590.652C330.793 593.14 328.34 595.02 325.395 595.503C321.632 596.119 318.065 594.369 315.091 592.263C309.902 586.648 311.504 576.037 311.584 568.906C319.518 570.506 325.872 570.532 333.661 568.111Z"/>
	<path fill="white" d="M587.984 728.414C593.37 732.863 600 741.678 604.869 747.201C598.476 747.432 592.024 747.265 585.625 747.268Q576.329 747.32 567.035 747.139C573.876 740.762 581.002 734.641 587.984 728.414Z"/>
	<path fill="white" d="M728.103 751.236Q740.169 751.166 752.23 750.82C750.84 752.46 749.603 754.245 748.327 755.975L745.756 760.351C739.301 758.378 733.565 755.151 728.103 751.236Z"/>
	<path fill="#EE5F59" d="M661.191 331.424C658.982 326.59 656.685 323.051 651.729 320.58C639.498 314.481 603.195 320.615 587.605 317.432C584.315 316.76 581.122 315.38 578.463 313.315C573.704 309.618 571.327 304.147 570.68 298.256C570.05 292.513 571.839 286.916 575.554 282.507C580.103 277.106 585.857 274.975 592.709 274.522C606.765 273.593 621.255 274.221 635.362 274.156L724.444 274.147L781.243 274.203C791.266 274.214 802.025 273.514 811.962 274.698C816.506 275.24 820.421 276.707 823.853 279.813C828.547 284.059 831.591 290.424 831.764 296.769C831.949 303.524 829.274 308.589 824.662 313.251C822.291 314.87 820.12 316.165 817.3 316.904C806.924 319.621 794.443 317.197 791.797 331.979C790.885 337.071 791.467 342.54 794.601 346.791C797.489 350.708 802.62 353.781 807.444 354.385C812.483 355.016 817.769 354.659 822.851 354.634L850.939 354.501C867.791 354.522 882.773 355.664 894.132 369.813C901.306 378.75 904.106 390.346 902.742 401.642C901.482 412.08 895.975 421.174 887.651 427.538C882.983 431.107 876.473 434.688 870.574 435.391C863.765 436.203 856.705 435.922 849.854 435.923L816.246 435.858L715.25 436.14L620.778 436.124L595.179 436.037C589.779 436.029 584.13 436.368 578.775 435.658C568.398 434.283 558.303 427.825 552.138 419.463Q551.525 418.634 550.953 417.775Q550.382 416.917 549.854 416.031Q549.326 415.145 548.842 414.234Q548.359 413.323 547.921 412.389Q547.484 411.455 547.093 410.501Q546.702 409.547 546.359 408.574Q546.017 407.601 545.722 406.613Q545.428 405.624 545.184 404.622Q544.939 403.621 544.744 402.608Q544.549 401.595 544.405 400.574Q544.261 399.553 544.168 398.526Q544.074 397.499 544.032 396.468Q543.99 395.438 543.999 394.406Q544.008 393.375 544.068 392.346Q544.129 391.316 544.24 390.291Q544.351 389.266 544.513 388.247C546.19 377.856 552.563 368.51 561.125 362.482C565.176 359.63 569.594 357.776 574.436 356.763C582.483 355.08 591.1 355.664 599.291 355.663L629.55 355.664C635.57 355.66 642.115 356.19 647.968 354.6C654.758 352.756 660.208 348.121 661.496 340.99C662.091 337.694 661.773 334.67 661.191 331.424Z"/>
	<path fill="white" d="M662.994 331.454C661.015 325.961 657.469 321.102 652.104 318.534C636.796 311.206 592.807 321.452 579.899 312.145C575.931 309.284 573.428 305.018 572.651 300.208C571.765 294.728 572.651 289.27 575.954 284.728C578.69 280.966 583.12 277.453 587.84 276.776C598.409 275.262 612.592 276.324 623.547 276.29Q663.056 276.107 702.565 276.325L774.285 276.344C786.466 276.324 799.175 275.582 811.305 276.553C815.245 276.869 818.793 278.219 821.904 280.671Q822.325 281.006 822.728 281.362Q823.131 281.718 823.516 282.093Q823.901 282.468 824.267 282.862Q824.633 283.256 824.979 283.668Q825.325 284.08 825.649 284.509Q825.974 284.937 826.277 285.381Q826.58 285.826 826.861 286.284Q827.141 286.743 827.399 287.215Q827.656 287.687 827.89 288.172Q828.123 288.656 828.332 289.152Q828.541 289.647 828.725 290.152Q828.909 290.658 829.068 291.172Q829.227 291.685 829.359 292.206Q829.492 292.727 829.599 293.254Q829.706 293.782 829.786 294.313Q829.866 294.845 829.92 295.38C830.509 301.361 828.638 306.286 824.858 310.828C823.146 312.151 821.396 313.603 819.38 314.431C814.736 316.338 809.849 316.005 805.029 316.945C796.222 318.662 790.838 325.004 789.792 333.801C789.155 339.169 790.611 344.424 794.064 348.593C798.314 353.726 803.477 355.794 809.962 356.316C822.373 357.316 835.519 356.424 848.004 356.392C864.716 356.35 880.141 356.087 892.002 369.813Q892.644 370.556 893.248 371.329Q893.851 372.103 894.415 372.906Q894.98 373.709 895.503 374.54Q896.026 375.37 896.507 376.225Q896.988 377.081 897.426 377.959Q897.863 378.838 898.256 379.737Q898.649 380.637 898.997 381.554Q899.344 382.472 899.645 383.406Q899.946 384.341 900.2 385.289Q900.454 386.237 900.66 387.196Q900.866 388.156 901.023 389.125Q901.181 390.093 901.29 391.069Q901.399 392.044 901.459 393.024Q901.519 394.003 901.529 394.985Q901.54 395.966 901.502 396.947Q901.464 397.927 901.376 398.905C900.515 409.442 896.012 418.384 887.857 425.15C882.15 429.886 875.496 432.804 868.13 433.677C863.041 434.28 857.742 433.968 852.617 433.97L825.173 433.99L735.06 434.061L627.92 434.188L598.369 434.12C592.175 434.133 585.686 434.513 579.533 433.898C569.702 432.915 560.542 427.409 554.429 419.742Q553.814 418.969 553.238 418.165Q552.662 417.362 552.127 416.531Q551.592 415.7 551.099 414.844Q550.606 413.987 550.157 413.107Q549.707 412.227 549.302 411.325Q548.898 410.424 548.538 409.503Q548.179 408.582 547.866 407.645Q547.553 406.707 547.288 405.755Q547.022 404.803 546.804 403.839Q546.587 402.875 546.417 401.902Q546.248 400.928 546.128 399.947Q546.007 398.966 545.936 397.98Q545.865 396.995 545.843 396.007Q545.821 395.019 545.849 394.031Q545.876 393.043 545.953 392.057Q546.03 391.072 546.156 390.092Q546.264 389.184 546.417 388.283Q546.57 387.382 546.767 386.489Q546.964 385.596 547.206 384.715Q547.447 383.833 547.732 382.964Q548.017 382.096 548.345 381.242Q548.672 380.389 549.042 379.553Q549.412 378.716 549.822 377.9Q550.233 377.083 550.684 376.288Q551.135 375.492 551.624 374.72Q552.114 373.948 552.641 373.201Q553.169 372.455 553.732 371.735Q554.296 371.015 554.895 370.325Q555.494 369.634 556.126 368.974Q556.759 368.314 557.423 367.686Q558.087 367.058 558.782 366.463Q559.477 365.869 560.2 365.31C572.695 355.54 586.946 357.358 601.865 357.413L630.782 357.517C637.053 357.535 643.875 358.138 649.918 356.172C657.542 353.691 662.532 347.368 663.485 339.398C663.81 336.679 663.539 334.12 662.994 331.454Z"/>
	<path fill="white" d="M746.181 516.982C748.222 511.983 754.31 507.219 758.959 504.722C762.827 502.644 766.477 501.774 770.843 501.518C782.738 500.82 794.91 501.346 806.841 501.341L877.372 501.426L934.533 501.421C944.796 501.419 965.167 500.072 974.03 502.709C980.87 505.064 986.615 509.252 990.314 515.565C994.259 522.544 995.884 530.62 993.709 538.492C991.696 545.779 986.967 552.303 980.327 556.032C978.241 557.204 975.868 558.3 973.516 558.76C965.599 561.324 943.253 560.007 934.299 559.994C923.509 559.979 912.605 560.293 901.828 559.899C891.561 560.078 877.438 558.827 867.675 560.56C860.506 562.586 854.365 566.636 850.59 573.253C848.752 576.477 847.869 579.81 847.307 583.437C847.445 590.5 848.25 595.759 852.551 601.615C857.91 607.535 863.331 609.393 870.851 610.95L906.147 611.172C913.338 611.218 921.042 610.736 928.129 611.992C931.854 612.652 935.508 613.845 938.46 616.298C943.984 620.061 947.718 626.365 948.937 632.888C950.042 638.801 948.916 644.46 945.757 649.552C942.97 655.004 937.923 658.846 932.169 660.776C929.545 661.656 926.509 662.198 923.735 661.975C914.242 662.185 904.649 662.546 895.16 662.092C884.897 662.857 874.323 662.437 864.016 662.474L805.459 662.458L774.787 662.348C767.881 662.379 760.701 662.876 753.839 662.036C749.606 661.519 746.181 660.32 742.777 657.665C737.814 653.795 734.16 647.961 733.454 641.661C731.779 634.89 734.215 628.62 736.93 622.534C734.916 622.534 733.035 622.471 731.044 622.162C723.109 621.708 716.557 617.602 711.113 612.116C711.054 612.064 710.99 612.017 710.936 611.959C703.935 604.507 699.88 595.08 700.371 584.767C700.848 574.737 704.938 565.714 712.37 558.966C713.448 557.744 715.183 556.553 716.554 555.642C725.756 549.53 735.977 548.523 746.588 550.706C744.53 547.264 742.959 543.802 742.124 539.877Q741.963 539.149 741.837 538.414Q741.712 537.678 741.623 536.938Q741.534 536.197 741.481 535.453Q741.429 534.709 741.413 533.964Q741.397 533.218 741.418 532.472Q741.438 531.727 741.496 530.983Q741.553 530.24 741.647 529.5Q741.741 528.76 741.871 528.025Q742.001 527.291 742.167 526.564Q742.333 525.837 742.535 525.119Q742.737 524.401 742.973 523.693Q743.21 522.986 743.481 522.291Q743.752 521.596 744.057 520.916Q744.362 520.235 744.701 519.57Q745.039 518.905 745.409 518.258Q745.779 517.61 746.181 516.982Z"/>
	<path fill="#365F97" d="M746.181 516.982C748.222 511.983 754.31 507.219 758.959 504.722C762.827 502.644 766.477 501.774 770.843 501.518C782.738 500.82 794.91 501.346 806.841 501.341L877.372 501.426L934.533 501.421C944.796 501.419 965.167 500.072 974.03 502.709C980.87 505.064 986.615 509.252 990.314 515.565C989.298 514.896 988.29 514.23 987.314 513.503C987.473 514.31 987.625 515.116 987.818 515.916C983.534 510.606 979.225 507.203 972.809 504.717C963.805 502.153 938.915 503.65 928.007 503.705L873.751 503.739L805.493 503.676C793.517 503.674 781.038 502.996 769.122 503.94C765.57 504.221 762.017 505.57 758.932 507.317C753.809 510.218 750.366 514.192 747.098 518.998L746.181 516.982Z"/>
	<path fill="#2C5993" d="M987.818 515.916C987.625 515.116 987.473 514.31 987.314 513.503C988.29 514.23 989.298 514.896 990.314 515.565C994.259 522.544 995.884 530.62 993.709 538.492C991.696 545.779 986.967 552.303 980.327 556.032C978.241 557.204 975.868 558.3 973.516 558.76C965.599 561.324 943.253 560.007 934.299 559.994C923.509 559.979 912.605 560.293 901.828 559.899C891.561 560.078 877.438 558.827 867.675 560.56C860.506 562.586 854.365 566.636 850.59 573.253C848.752 576.477 847.869 579.81 847.307 583.437C846.609 582.756 845.924 582.156 845.139 581.577C845.739 578.386 846.65 575.301 848.207 572.434C852.219 565.049 858.839 560.948 866.608 558.554C875.036 557.018 884.956 557.978 893.554 557.979L946.046 557.997C952.56 557.968 959.371 557.506 965.851 557.95C969.969 557.302 973.485 556.822 977.291 554.943Q977.891 554.649 978.476 554.326Q979.061 554.004 979.629 553.652Q980.197 553.3 980.747 552.921Q981.297 552.542 981.828 552.135Q982.358 551.729 982.868 551.297Q983.378 550.865 983.865 550.408Q984.353 549.951 984.817 549.471Q985.281 548.99 985.721 548.487Q986.161 547.984 986.575 547.46Q986.99 546.936 987.377 546.391Q987.765 545.847 988.125 545.285Q988.486 544.722 988.818 544.142Q989.149 543.562 989.452 542.966Q989.755 542.371 990.027 541.761Q990.3 541.151 990.542 540.528Q990.784 539.905 990.995 539.271C993.76 530.751 991.631 523.61 987.818 515.916Z"/>
	<path fill="#1E4D93" d="M733.454 641.661C733.846 637.672 733.584 632.159 735.51 628.612C734.858 631.993 733.253 637.454 734.57 640.789L735.315 640.97C737.334 647.802 740.376 654.04 746.99 657.533C749.612 658.918 752.609 659.563 755.541 659.861C762.911 660.611 770.727 660.123 778.143 660.122C793.639 660.119 809.147 659.971 824.641 660.172C826.735 661.634 858.29 660.734 862.917 660.716L904.721 660.635C909.84 660.629 916.556 659.839 921.497 660.816C922.446 661.004 923.026 661.347 923.735 661.975C914.242 662.185 904.649 662.546 895.16 662.092C884.897 662.857 874.323 662.437 864.016 662.474L805.459 662.458L774.787 662.348C767.881 662.379 760.701 662.876 753.839 662.036C749.606 661.519 746.181 660.32 742.777 657.665C737.814 653.795 734.16 647.961 733.454 641.661Z"/>
	<path fill="#2C5993" d="M852.551 601.615C857.91 607.535 863.331 609.393 870.851 610.95L906.147 611.172C913.338 611.218 921.042 610.736 928.129 611.992C931.854 612.652 935.508 613.845 938.46 616.298C943.984 620.061 947.718 626.365 948.937 632.888C950.042 638.801 948.916 644.46 945.757 649.552C944.534 649.165 944.751 649.023 944.174 647.956C945.936 644.512 946.99 640.817 946.924 636.919C946.79 628.978 942.543 623.006 936.989 617.823C933.626 615.768 930.362 614.635 926.495 614.008C920.558 613.046 914.235 613.426 908.226 613.417C895.101 613.398 881.699 613.865 868.613 612.899C861.377 612.165 855.005 608.194 850.404 602.705L852.551 601.615Z"/>
	<path fill="#2C5993" d="M746.588 550.706C744.53 547.264 742.959 543.802 742.124 539.877Q741.963 539.149 741.837 538.414Q741.712 537.678 741.623 536.938Q741.534 536.197 741.481 535.453Q741.429 534.709 741.413 533.964Q741.397 533.218 741.418 532.472Q741.438 531.727 741.496 530.983Q741.553 530.24 741.647 529.5Q741.741 528.76 741.871 528.025Q742.001 527.291 742.167 526.564Q742.333 525.837 742.535 525.119Q742.737 524.401 742.973 523.693Q743.21 522.986 743.481 522.291Q743.752 521.596 744.057 520.916Q744.362 520.235 744.701 519.57Q745.039 518.905 745.409 518.258Q745.779 517.61 746.181 516.982L747.098 518.998C743.82 526.639 741.887 534.853 745.057 542.931C747.429 548.975 751.688 553.792 756.79 557.703C759.104 559.476 761.523 560.94 763.546 563.074C757.089 561.167 754.599 557.983 749.209 554.795C740.757 549.795 728.25 551.934 720.007 556.433C717.769 557.655 715.576 559.186 713.677 560.887L712.37 558.966C713.448 557.744 715.183 556.553 716.554 555.642C725.756 549.53 735.977 548.523 746.588 550.706Z"/>
	<path fill="#2C5993" d="M712.141 610.107C717.978 615.66 723.48 618.422 731.315 620.192C733.863 620.109 736.424 620.072 738.97 619.939C743.242 616.72 746.461 614.503 751.675 613.125C751.549 613.245 751.425 613.368 751.298 613.487C743.338 620.979 735.766 623.092 735.243 636.082C735.178 637.705 735.244 639.347 735.315 640.97L734.57 640.789C733.253 637.454 734.858 631.993 735.51 628.612C733.584 632.159 733.846 637.672 733.454 641.661C731.779 634.89 734.215 628.62 736.93 622.534C734.916 622.534 733.035 622.471 731.044 622.162C723.109 621.708 716.557 617.602 711.113 612.116L712.141 610.107Z"/>
	<path fill="#365F97" d="M712.37 558.966L713.677 560.887C706.798 567.779 702.548 576.214 702.502 586.099C702.46 595.006 706.212 603.544 712.141 610.107L711.113 612.116C711.054 612.064 710.99 612.017 710.936 611.959C703.935 604.507 699.88 595.08 700.371 584.767C700.848 574.737 704.938 565.714 712.37 558.966Z"/>
	<path fill="#365F97" d="M944.174 647.956C944.751 649.023 944.534 649.165 945.757 649.552C942.97 655.004 937.923 658.846 932.169 660.776C929.545 661.656 926.509 662.198 923.735 661.975C923.026 661.347 922.446 661.004 921.497 660.816C916.556 659.839 909.84 660.629 904.721 660.635L862.917 660.716C858.29 660.734 826.735 661.634 824.641 660.172C832.956 659.709 841.547 660.133 849.894 660.133L899.987 660.162C908.683 660.179 918.744 661.124 927.312 659.725C934.787 658.505 939.868 653.778 944.174 647.956Z"/>
	<path fill="#365F97" d="M850.404 602.705C850.249 602.504 850.091 602.306 849.94 602.103C845.549 596.195 844.074 588.747 845.139 581.577C845.924 582.156 846.609 582.756 847.307 583.437C847.445 590.5 848.25 595.759 852.551 601.615L850.404 602.705Z"/>
	<defs>
		<linearGradient id="gradient_0" gradientUnits="userSpaceOnUse" x1="258.57776" y1="362.60715" x2="258.42224" y2="373.39285">
			<stop offset="0" stop-color="#2D6493"/>
			<stop offset="1" stop-color="#0D459D"/>
		</linearGradient>
	</defs>
	<path fill="url(#gradient_0)" d="M429.02 363.397C425.394 366.589 420.984 368.95 416.422 370.51C412.72 371.775 408.841 372.296 404.943 372.465C393.766 372.949 382.379 372.466 371.185 372.372Q344.65 372.127 318.114 372.231L134.72 372.292C128.923 372.269 91.6157 373.05 88.7494 371.628L88.9997 370.75C89.4007 370.512 89.7609 370.186 90.2027 370.038C92.0957 369.403 135.899 369.97 142.408 369.968L341.437 369.95L383.135 370.048C391.984 370.086 401.343 370.725 410.107 369.482C415.481 368.72 420.219 366.235 424.974 363.761C426.496 363.883 427.531 363.746 429.02 363.397Z"/>
	<path fill="#2C5993" d="M266.913 220.303C284.245 209.879 305.837 208.25 325.234 213.045C331.205 214.521 342.193 218.345 346.604 222.651C346.745 222.874 346.882 223.1 347.027 223.321C347.527 224.085 348.055 224.726 348.659 225.406L348.396 226.36Q346.537 225.245 344.655 224.168C327.53 214.39 308.393 210.397 288.814 214.395C284.327 215.311 280.038 217.139 275.622 218.349C260.482 226.014 243.834 237.836 237.489 254.338C239.034 255.693 242.481 258.113 242.969 260.138L241.48 260.847L241.587 260.816C225.602 248.5 209.606 243.544 189.327 246.186C170.938 248.582 153.336 259.499 142.217 274.208Q140.463 276.557 138.916 279.047Q137.368 281.536 136.038 284.148Q134.708 286.76 133.605 289.476Q132.501 292.192 131.633 294.992C130.838 297.548 128.608 310.152 127.891 310.949L126.659 310.795C124.778 300.923 132.819 283.354 138.193 275.37C148.813 259.593 166.728 247.799 185.411 244.228Q186.993 243.912 188.588 243.67Q190.184 243.428 191.789 243.261Q193.393 243.094 195.004 243.002Q196.615 242.91 198.228 242.894Q199.842 242.877 201.454 242.936Q203.067 242.995 204.674 243.129Q206.282 243.263 207.882 243.473Q209.482 243.682 211.07 243.965Q212.659 244.249 214.232 244.607Q215.806 244.964 217.36 245.395Q218.915 245.825 220.449 246.328Q221.982 246.831 223.49 247.405Q224.998 247.979 226.477 248.623Q227.957 249.266 229.404 249.979Q230.852 250.691 232.265 251.47Q233.678 252.249 235.053 253.093C242.496 239.644 252.785 227.097 266.913 220.303Z"/>
	<path fill="#365F97" d="M181.889 532.929C192.631 531.967 202.632 534.045 211.075 541.053C216.847 545.843 221.407 552.296 223.273 559.604C226.321 566.714 225.528 576.553 222.689 583.642C219.033 592.772 211.75 600.867 202.647 604.748Q201.522 605.232 200.368 605.642Q199.214 606.052 198.035 606.386Q196.857 606.72 195.659 606.976Q194.462 607.233 193.25 607.411Q192.038 607.589 190.817 607.688Q189.597 607.787 188.372 607.806Q187.147 607.826 185.924 607.765Q184.701 607.705 183.484 607.565C170.899 607.83 158.278 607.59 145.686 607.628C135.514 607.659 125.187 608.082 115.041 607.56L114.873 606.949C110.795 605.369 95.713 607.479 89.3259 606.224C86.5656 606.212 80.2655 607.044 78.1294 605.721C103.344 605.351 128.63 605.669 153.85 605.72C165.699 605.744 178.017 606.494 189.804 605.444C193.564 605.109 197.241 604.394 200.747 602.968C209.393 599.453 216.437 592.086 220.022 583.519C224.5 572.816 222.459 563.404 218.14 553.073C216.332 550.335 214.491 547.769 212.158 545.448C202.534 535.876 192.098 534.887 179.192 534.889C183.634 533.306 188.774 534.716 193.368 534.215C192.432 533.825 191.85 533.627 190.819 533.638C187.87 533.667 184.828 533.22 181.889 532.929Z"/>
	<path fill="#1E4D93" d="M89.3259 606.224L156.659 606.176C170.472 606.171 184.463 606.969 198.159 605.296C197.834 605.045 197.254 605.184 196.849 605.193C196.537 605.556 196.332 606.052 195.912 606.283C194.717 606.941 185.436 607.317 183.484 607.565C170.899 607.83 158.278 607.59 145.686 607.628C135.514 607.659 125.187 608.082 115.041 607.56L114.873 606.949C110.795 605.369 95.713 607.479 89.3259 606.224Z"/>
	<path fill="#2C5993" d="M69.0987 517.777C65.1857 512.136 63.1539 505.059 62.8567 498.24C62.4045 487.863 66.5107 477.631 73.5251 470.041C79.8703 463.175 88.6829 458.781 98.0871 458.444C97.9186 458.596 97.7566 458.755 97.5816 458.9C95.1464 460.909 88.32 460.421 85.073 462.731C88.1081 462.929 91.501 460.512 94.7651 460.209C94.9868 460.188 95.2076 460.16 95.4293 460.14C95.5625 460.128 95.6962 460.122 95.8297 460.114L96.3726 460.621C83.6339 464.605 76.0557 467.321 69.5552 479.799Q69.1334 480.62 68.7529 481.461Q68.3724 482.303 68.0341 483.162Q67.6958 484.021 67.4006 484.895Q67.1054 485.77 66.8539 486.659Q66.6025 487.547 66.3954 488.447Q66.1884 489.346 66.0262 490.255Q65.8641 491.164 65.7472 492.08Q65.6304 492.996 65.5591 493.916Q65.4879 494.837 65.4624 495.759Q65.4369 496.682 65.4573 497.605Q65.4777 498.528 65.5438 499.449Q65.6099 500.37 65.7217 501.287Q65.8335 502.203 65.9906 503.113Q66.1477 504.023 66.3498 504.923Q66.5518 505.824 66.7984 506.714Q67.0449 507.604 67.3353 508.48C68.4499 511.863 70.0796 514.903 71.982 517.901C79.9068 527.022 88.9829 531.932 101.102 532.751C110.366 533.377 119.881 532.963 129.173 532.96L164.391 532.93C170.088 532.905 176.237 532.395 181.889 532.929C184.828 533.22 187.87 533.667 190.819 533.638C191.85 533.627 192.432 533.825 193.368 534.215C188.774 534.716 183.634 533.306 179.192 534.889C161.999 535.329 144.725 534.981 127.523 534.973C117.226 534.997 105.881 535.956 95.7406 534.457C84.4492 532.788 75.8403 526.794 69.0987 517.777Z"/>
	<path fill="#2C5993" d="M363.155 241.001C364.185 240.348 364.307 240.401 365.541 240.466C372.535 250.845 378.918 263.359 379.547 276.141C380.372 281.026 380.273 285.88 379.979 290.807L386.148 289.538C400.301 287.921 415.108 290.265 426.549 299.277C430.676 302.527 434.672 306.801 437.252 311.396L436.186 311.914L436.245 314.052C433.104 309.217 429.528 304.829 424.958 301.274C413.784 292.581 400.172 290.263 386.388 291.9C376.49 293.645 367.587 297.107 360.094 304.039C358.36 305.643 357.134 307.845 355.359 309.336C354.59 309.981 354.547 310.064 353.532 309.92L353.061 308.951C353.181 308.229 353.146 308.206 353.492 307.436C354.153 305.965 356.028 304.501 357.227 303.427C363.392 297.903 369.523 294.083 377.395 291.538L377.872 283.084C376.797 266.883 372.071 254.458 363.155 241.001Z"/>
	<defs>
		<linearGradient id="gradient_1" gradientUnits="userSpaceOnUse" x1="102.03573" y1="663.33844" x2="102.42431" y2="656.83081">
			<stop offset="0" stop-color="#3B4F7B"/>
			<stop offset="1" stop-color="#3D649B"/>
		</linearGradient>
	</defs>
	<path fill="url(#gradient_1)" d="M41.3994 654.405C45.2556 656.765 48.7585 658.273 53.2441 659.002C62.7498 660.547 73.7211 659.365 83.3839 659.253Q108.688 658.959 133.994 659.012C141.481 659.014 149.983 658.227 157.302 659.827C159.991 660.415 162.085 661.462 164.278 663.132L163.154 665.2C160.957 663.743 158.854 662.771 156.232 662.319C147.747 660.855 138.15 661.726 129.506 661.697L74.4778 661.659C66.8796 661.662 58.4979 662.365 51.0294 660.978C46.3689 660.112 42.6159 658.197 38.8054 655.436C39.6821 655.171 40.5493 654.751 41.3994 654.405Z"/>
	<path fill="#1E4D93" d="M98.0871 458.444C106.632 457.482 115.591 458.001 124.197 458.019L165.25 458.002L201.066 457.963C206.165 457.957 211.776 457.421 216.811 457.927C217.9 458.037 218.931 458.276 219.781 459.014C219.913 459.128 220.013 459.274 220.13 459.404C218.672 460.859 163.822 460.44 157.311 460.435C137.097 460.419 116.542 459.56 96.3726 460.621L95.8297 460.114C95.6962 460.122 95.5625 460.128 95.4293 460.14C95.2076 460.16 94.9868 460.188 94.7651 460.209C91.501 460.512 88.1081 462.929 85.073 462.731C88.32 460.421 95.1464 460.909 97.5816 458.9C97.7566 458.755 97.9186 458.596 98.0871 458.444Z"/>
	<path fill="#2C5993" d="M164.278 663.132C168.282 667.001 170.974 671.409 171.215 677.142Q171.23 677.595 171.221 678.049Q171.213 678.502 171.182 678.955Q171.151 679.408 171.097 679.858Q171.044 680.308 170.967 680.755Q170.891 681.203 170.792 681.645Q170.693 682.088 170.572 682.525Q170.451 682.962 170.308 683.393Q170.165 683.823 170 684.246Q169.835 684.669 169.65 685.083Q169.464 685.496 169.258 685.9Q169.052 686.304 168.825 686.697Q168.599 687.091 168.353 687.472Q168.107 687.853 167.842 688.221Q167.578 688.589 167.294 688.944Q167.011 689.298 166.711 689.638Q166.41 689.978 166.093 690.302C162.434 694.11 157.598 695.981 152.375 696.018C141.388 696.155 122.935 694.935 112.898 696.602C106.84 698.236 102.126 701.749 99.0208 707.251C97.3712 710.173 96.4915 713.163 96.1217 716.482C95.6691 718.664 95.9279 719.071 94.0721 720.417C93.5211 715.717 94.1075 711.39 96.219 707.108C99.5425 700.368 105.039 696.789 111.944 694.489C119.29 693.009 143.323 693.547 151.649 693.971C156.037 693.561 159.309 692.793 162.852 689.915C166.163 687.225 168.457 683.349 168.782 679.054C169.198 673.554 166.697 669.128 163.154 665.2L164.278 663.132Z"/>
	<path fill="#2C5993" d="M37.926 613.064C38.1989 612.614 38.04 612.834 38.6697 612.242C48.2859 603.205 65.9536 605.571 78.1294 605.721C80.2655 607.044 86.5656 606.212 89.3259 606.224C95.713 607.479 110.795 605.369 114.873 606.949L115.041 607.56C101.462 608.151 87.7471 607.798 74.1533 607.795C66.7713 607.793 58.4732 607.058 51.2606 608.765C46.6207 609.863 42.9821 612.128 39.1774 614.877C34.5202 619.999 31.5606 624.845 30.4233 631.828L28.8358 632.018L28.2329 631.142C28.254 630.927 28.2713 630.711 28.296 630.496C29.0431 623.989 32.7748 617.023 37.926 613.064Z"/>
	<path fill="#2C5993" d="M116.97 737.777C136.918 738.058 156.884 737.897 176.834 737.913C184.431 737.919 196.958 736.903 203.981 738.458L204.174 737.949L203.676 738.39L204.42 738.572L204.319 739.456C195.52 741.127 180.57 739.978 171.134 739.977C152.967 739.973 134.635 740.531 116.484 740.038L116.651 739.581L116.411 738.76L116.97 737.777Z"/>
	<path fill="#1E4D93" d="M340.684 458.007C347.518 457.767 397.881 457.128 400.22 458.55L400.536 460.371C392.412 460.265 343.272 461.26 341.064 459.998L340.684 458.007Z"/>
	<path fill="#365F97" d="M437.252 311.396Q437.785 312.205 438.278 313.04Q438.771 313.875 439.221 314.733Q439.672 315.591 440.079 316.471Q440.487 317.35 440.85 318.249Q441.214 319.147 441.532 320.063Q441.85 320.978 442.123 321.909Q442.396 322.839 442.622 323.781Q442.848 324.724 443.027 325.676Q443.206 326.629 443.338 327.589Q443.469 328.55 443.553 329.515Q443.637 330.481 443.673 331.449Q443.709 332.418 443.697 333.387Q443.684 334.357 443.624 335.324Q443.564 336.291 443.456 337.255Q443.348 338.218 443.192 339.175Q443.036 340.131 442.833 341.079C441.078 349.624 436.112 358.028 429.124 363.329C429.091 363.354 429.054 363.374 429.02 363.397C427.531 363.746 426.496 363.883 424.974 363.761C431.248 358.737 436.497 352.838 439.296 345.189C443.209 334.499 440.83 324.063 436.245 314.052L436.186 311.914L437.252 311.396Z"/>
	<path fill="#365F97" d="M94.0721 720.417C95.9279 719.071 95.6691 718.664 96.1217 716.482C96.9404 723.143 99.0153 729.129 104.608 733.324C108.253 736.059 112.475 737.402 116.97 737.777L116.411 738.76L116.651 739.581L116.484 740.038Q115.596 740.014 114.712 739.923Q113.828 739.833 112.953 739.677Q112.079 739.521 111.218 739.3Q110.357 739.079 109.516 738.795Q108.674 738.51 107.856 738.163Q107.038 737.817 106.248 737.41Q105.458 737.004 104.7 736.539Q103.943 736.075 103.222 735.555C97.9191 731.807 95.1557 726.734 94.0721 720.417Z"/>
	<path fill="#365F97" d="M28.2329 631.142L28.8358 632.018L30.4233 631.828C30.6938 640.477 33.5198 647.076 39.8102 652.977C40.3311 653.465 40.8535 653.945 41.3994 654.405C40.5493 654.751 39.6821 655.171 38.8054 655.436C37.2402 654.011 35.6646 652.59 34.3541 650.92C30.0764 645.469 27.2729 638.124 28.2329 631.142Z"/>
	<path fill="#365F97" d="M346.604 222.651C354.424 226.929 360.223 233.451 365.541 240.466C364.307 240.401 364.185 240.348 363.155 241.001C358.186 234.848 353.622 231.609 348.396 226.36L348.659 225.406C348.055 224.726 347.527 224.085 347.027 223.321C346.882 223.1 346.745 222.874 346.604 222.651Z"/>
	<path fill="#2C5993" d="M270.542 458.144C274.696 457.8 287.745 456.711 290.843 458.582L291.215 460.422C287.165 460.475 274.06 461.51 271.285 459.898C270.624 459.514 270.7 458.83 270.542 458.144Z"/>
</svg>
